<svg xmlns="http://www.w3.org/2000/svg" width="1080" height="600" viewBox="0 0 1080 600">
<rect width="100%" height="100%" fill="#ffffff"/>
<text x="540.0" y="34" text-anchor="middle" font-size="22" font-family="Arial" font-weight="700">Generated Graph / Disturbance Structure Error</text>
<line x1="86" y1="468" x2="1052" y2="468" stroke="#111827" stroke-width="1"/>
<line x1="86" y1="66" x2="86" y2="468" stroke="#111827" stroke-width="1"/>
<line x1="86" y1="468.0" x2="1052" y2="468.0" stroke="#e5e7eb"/>
<text x="76" y="472.0" text-anchor="end" font-size="12" font-family="Arial">0.00</text>
<line x1="86" y1="387.6" x2="1052" y2="387.6" stroke="#e5e7eb"/>
<text x="76" y="391.6" text-anchor="end" font-size="12" font-family="Arial">0.14</text>
<line x1="86" y1="307.2" x2="1052" y2="307.2" stroke="#e5e7eb"/>
<text x="76" y="311.2" text-anchor="end" font-size="12" font-family="Arial">0.28</text>
<line x1="86" y1="226.8" x2="1052" y2="226.8" stroke="#e5e7eb"/>
<text x="76" y="230.8" text-anchor="end" font-size="12" font-family="Arial">0.42</text>
<line x1="86" y1="146.4" x2="1052" y2="146.4" stroke="#e5e7eb"/>
<text x="76" y="150.4" text-anchor="end" font-size="12" font-family="Arial">0.56</text>
<line x1="86" y1="66.0" x2="1052" y2="66.0" stroke="#e5e7eb"/>
<text x="76" y="70.0" text-anchor="end" font-size="12" font-family="Arial">0.70</text>
<rect x="110.0" y="359.6" width="24.6" height="108.4" fill="#2563eb"/>
<text x="122.3" y="355.6" text-anchor="middle" font-size="10" font-family="Arial">0.19</text>
<rect x="140.0" y="336.6" width="24.6" height="131.4" fill="#059669"/>
<text x="152.3" y="332.6" text-anchor="middle" font-size="10" font-family="Arial">0.23</text>
<rect x="170.0" y="353.8" width="24.6" height="114.2" fill="#dc2626"/>
<text x="182.3" y="349.8" text-anchor="middle" font-size="10" font-family="Arial">0.20</text>
<text x="155.0" y="496" text-anchor="middle" font-size="12" font-family="Arial">count t0</text>
<rect x="248.0" y="348.1" width="24.6" height="119.9" fill="#2563eb"/>
<text x="260.3" y="344.1" text-anchor="middle" font-size="10" font-family="Arial">0.21</text>
<rect x="278.0" y="330.8" width="24.6" height="137.2" fill="#059669"/>
<text x="290.3" y="326.8" text-anchor="middle" font-size="10" font-family="Arial">0.24</text>
<rect x="308.0" y="302.1" width="24.6" height="165.9" fill="#dc2626"/>
<text x="320.3" y="298.1" text-anchor="middle" font-size="10" font-family="Arial">0.29</text>
<text x="293.0" y="496" text-anchor="middle" font-size="12" font-family="Arial">count t1</text>
<rect x="386.0" y="170.9" width="24.6" height="297.1" fill="#2563eb"/>
<text x="398.3" y="166.9" text-anchor="middle" font-size="10" font-family="Arial">0.52</text>
<rect x="416.0" y="127.3" width="24.6" height="340.7" fill="#059669"/>
<text x="428.3" y="123.3" text-anchor="middle" font-size="10" font-family="Arial">0.59</text>
<rect x="446.0" y="211.9" width="24.6" height="256.1" fill="#dc2626"/>
<text x="458.3" y="207.9" text-anchor="middle" font-size="10" font-family="Arial">0.45</text>
<text x="431.0" y="496" text-anchor="middle" font-size="12" font-family="Arial">anchor t0</text>
<rect x="524.0" y="408.8" width="24.6" height="59.2" fill="#2563eb"/>
<text x="536.3" y="404.8" text-anchor="middle" font-size="10" font-family="Arial">0.10</text>
<rect x="554.0" y="376.8" width="24.6" height="91.2" fill="#059669"/>
<text x="566.3" y="372.8" text-anchor="middle" font-size="10" font-family="Arial">0.16</text>
<rect x="584.0" y="399.5" width="24.6" height="68.5" fill="#dc2626"/>
<text x="596.3" y="395.5" text-anchor="middle" font-size="10" font-family="Arial">0.12</text>
<text x="569.0" y="496" text-anchor="middle" font-size="12" font-family="Arial">anchor t1</text>
<rect x="662.0" y="399.7" width="24.6" height="68.3" fill="#2563eb"/>
<text x="674.3" y="395.7" text-anchor="middle" font-size="10" font-family="Arial">0.12</text>
<rect x="692.0" y="347.4" width="24.6" height="120.6" fill="#059669"/>
<text x="704.3" y="343.4" text-anchor="middle" font-size="10" font-family="Arial">0.21</text>
<rect x="722.0" y="337.3" width="24.6" height="130.7" fill="#dc2626"/>
<text x="734.3" y="333.3" text-anchor="middle" font-size="10" font-family="Arial">0.23</text>
<text x="707.0" y="496" text-anchor="middle" font-size="12" font-family="Arial">param rel</text>
<rect x="800.0" y="318.9" width="24.6" height="149.1" fill="#2563eb"/>
<text x="812.3" y="314.9" text-anchor="middle" font-size="10" font-family="Arial">0.26</text>
<rect x="830.0" y="259.3" width="24.6" height="208.7" fill="#059669"/>
<text x="842.3" y="255.3" text-anchor="middle" font-size="10" font-family="Arial">0.36</text>
<rect x="860.0" y="156.7" width="24.6" height="311.3" fill="#dc2626"/>
<text x="872.3" y="152.7" text-anchor="middle" font-size="10" font-family="Arial">0.54</text>
<text x="845.0" y="496" text-anchor="middle" font-size="12" font-family="Arial">scenario</text>
<rect x="938.0" y="468.0" width="24.6" height="0.0" fill="#2563eb"/>
<text x="950.3" y="464.0" text-anchor="middle" font-size="10" font-family="Arial">0.00</text>
<rect x="968.0" y="468.0" width="24.6" height="0.0" fill="#059669"/>
<text x="980.3" y="464.0" text-anchor="middle" font-size="10" font-family="Arial">0.00</text>
<rect x="998.0" y="467.9" width="24.6" height="0.1" fill="#dc2626"/>
<text x="1010.3" y="463.9" text-anchor="middle" font-size="10" font-family="Arial">0.00</text>
<text x="983.0" y="496" text-anchor="middle" font-size="12" font-family="Arial">MILP</text>
<rect x="98" y="71" width="16" height="10" fill="#2563eb"/>
<text x="122" y="80" font-size="13" font-family="Arial">steps=2</text>
<rect x="98" y="95" width="16" height="10" fill="#059669"/>
<text x="122" y="104" font-size="13" font-family="Arial">steps=3</text>
<rect x="98" y="119" width="16" height="10" fill="#dc2626"/>
<text x="122" y="128" font-size="13" font-family="Arial">steps=4</text>
<text x="20" y="300.0" transform="rotate(-90 20 300.0)" text-anchor="middle" font-size="14" font-family="Arial">lower is better</text>
</svg>