<?xml version="1.0" encoding="utf-8" standalone="no"?>
<!DOCTYPE svg PUBLIC "-//W3C//DTD SVG 1.1//EN"
  "http://www.w3.org/Graphics/SVG/1.1/DTD/svg11.dtd">
<svg xmlns:xlink="http://www.w3.org/1999/xlink" width="756pt" height="374.4pt" viewBox="0 0 756 374.4" xmlns="http://www.w3.org/2000/svg" version="1.1">
 <metadata>
  <rdf:RDF xmlns:dc="http://purl.org/dc/elements/1.1/" xmlns:cc="http://creativecommons.org/ns#" xmlns:rdf="http://www.w3.org/1999/02/22-rdf-syntax-ns#">
   <cc:Work>
    <dc:type rdf:resource="http://purl.org/dc/dcmitype/StillImage"/>
    <dc:date>2026-05-26T03:29:31.179148</dc:date>
    <dc:format>image/svg+xml</dc:format>
    <dc:creator>
     <cc:Agent>
      <dc:title>Matplotlib v3.10.3, https://matplotlib.org/</dc:title>
     </cc:Agent>
    </dc:creator>
   </cc:Work>
  </rdf:RDF>
 </metadata>
 <defs>
  <style type="text/css">*{stroke-linejoin: round; stroke-linecap: butt}</style>
 </defs>
 <g id="figure_1">
  <g id="patch_1">
   <path d="M 0 374.4 
L 756 374.4 
L 756 0 
L 0 0 
z
" style="fill: #ffffff"/>
  </g>
  <g id="axes_1">
   <g id="patch_2">
    <path d="M 51.41 330.651043 
L 745.2 330.651043 
L 745.2 26.16 
L 51.41 26.16 
z
" style="fill: #ffffff"/>
   </g>
   <g id="patch_3">
    <path d="M 82.945909 330.651043 
L 117.985808 330.651043 
L 117.985808 330.6191 
L 82.945909 330.6191 
z
" clip-path="url(#pfe0eb2d79d)" style="fill: #1f77b4"/>
   </g>
   <g id="patch_4">
    <path d="M 214.34553 330.651043 
L 249.385429 330.651043 
L 249.385429 330.632453 
L 214.34553 330.632453 
z
" clip-path="url(#pfe0eb2d79d)" style="fill: #1f77b4"/>
   </g>
   <g id="patch_5">
    <path d="M 345.745152 330.651043 
L 380.785051 330.651043 
L 380.785051 330.636705 
L 345.745152 330.636705 
z
" clip-path="url(#pfe0eb2d79d)" style="fill: #1f77b4"/>
   </g>
   <g id="patch_6">
    <path d="M 477.144773 330.651043 
L 512.184672 330.651043 
L 512.184672 294.710671 
L 477.144773 294.710671 
z
" clip-path="url(#pfe0eb2d79d)" style="fill: #1f77b4"/>
   </g>
   <g id="patch_7">
    <path d="M 608.544394 330.651043 
L 643.584293 330.651043 
L 643.584293 249.239656 
L 608.544394 249.239656 
z
" clip-path="url(#pfe0eb2d79d)" style="fill: #1f77b4"/>
   </g>
   <g id="patch_8">
    <path d="M 117.985808 330.651043 
L 153.025707 330.651043 
L 153.025707 330.555214 
L 117.985808 330.555214 
z
" clip-path="url(#pfe0eb2d79d)" style="fill: #ff7f0e"/>
   </g>
   <g id="patch_9">
    <path d="M 249.385429 330.651043 
L 284.425328 330.651043 
L 284.425328 330.583449 
L 249.385429 330.583449 
z
" clip-path="url(#pfe0eb2d79d)" style="fill: #ff7f0e"/>
   </g>
   <g id="patch_10">
    <path d="M 380.785051 330.651043 
L 415.824949 330.651043 
L 415.824949 330.599325 
L 380.785051 330.599325 
z
" clip-path="url(#pfe0eb2d79d)" style="fill: #ff7f0e"/>
   </g>
   <g id="patch_11">
    <path d="M 512.184672 330.651043 
L 547.224571 330.651043 
L 547.224571 87.058209 
L 512.184672 87.058209 
z
" clip-path="url(#pfe0eb2d79d)" style="fill: #ff7f0e"/>
   </g>
   <g id="patch_12">
    <path d="M 643.584293 330.651043 
L 678.624192 330.651043 
L 678.624192 155.238426 
L 643.584293 155.238426 
z
" clip-path="url(#pfe0eb2d79d)" style="fill: #ff7f0e"/>
   </g>
   <g id="patch_13">
    <path d="M 153.025707 330.651043 
L 188.065606 330.651043 
L 188.065606 330.387514 
L 153.025707 330.387514 
z
" clip-path="url(#pfe0eb2d79d)" style="fill: #2ca02c"/>
   </g>
   <g id="patch_14">
    <path d="M 284.425328 330.651043 
L 319.465227 330.651043 
L 319.465227 330.453705 
L 284.425328 330.453705 
z
" clip-path="url(#pfe0eb2d79d)" style="fill: #2ca02c"/>
   </g>
   <g id="patch_15">
    <path d="M 415.824949 330.651043 
L 450.864848 330.651043 
L 450.864848 330.500483 
L 415.824949 330.500483 
z
" clip-path="url(#pfe0eb2d79d)" style="fill: #2ca02c"/>
   </g>
   <g id="patch_16">
    <path d="M 547.224571 330.651043 
L 582.26447 330.651043 
L 582.26447 118.819457 
L 547.224571 118.819457 
z
" clip-path="url(#pfe0eb2d79d)" style="fill: #2ca02c"/>
   </g>
   <g id="patch_17">
    <path d="M 678.624192 330.651043 
L 713.664091 330.651043 
L 713.664091 105.255743 
L 678.624192 105.255743 
z
" clip-path="url(#pfe0eb2d79d)" style="fill: #2ca02c"/>
   </g>
   <g id="matplotlib.axis_1">
    <g id="xtick_1">
     <g id="line2d_1">
      <defs>
       <path id="mcfd264ed03" d="M 0 0 
L 0 3.5 
" style="stroke: #000000; stroke-width: 0.8"/>
      </defs>
      <g>
       <use xlink:href="#mcfd264ed03" x="135.505758" y="330.651043" style="stroke: #000000; stroke-width: 0.8"/>
      </g>
     </g>
     <g id="text_1">
      <text style="font-size: 10px; font-family: 'Noto Sans CJK JP'" transform="translate(105.935125 353.10378) rotate(-15)">变量数</text>
     </g>
    </g>
    <g id="xtick_2">
     <g id="line2d_2">
      <g>
       <use xlink:href="#mcfd264ed03" x="266.905379" y="330.651043" style="stroke: #000000; stroke-width: 0.8"/>
      </g>
     </g>
     <g id="text_2">
      <text style="font-size: 10px; font-family: 'Noto Sans CJK JP'" transform="translate(237.334747 353.10378) rotate(-15)">约束数</text>
     </g>
    </g>
    <g id="xtick_3">
     <g id="line2d_3">
      <g>
       <use xlink:href="#mcfd264ed03" x="398.305" y="330.651043" style="stroke: #000000; stroke-width: 0.8"/>
      </g>
     </g>
     <g id="text_3">
      <text style="font-size: 10px; font-family: 'Noto Sans CJK JP'" transform="translate(359.07511 355.69197) rotate(-15)">非零系数</text>
     </g>
    </g>
    <g id="xtick_4">
     <g id="line2d_4">
      <g>
       <use xlink:href="#mcfd264ed03" x="529.704621" y="330.651043" style="stroke: #000000; stroke-width: 0.8"/>
      </g>
     </g>
     <g id="text_4">
      <text style="font-size: 10px; font-family: 'Noto Sans CJK JP'" transform="translate(490.474731 355.69197) rotate(-15)">构建耗时</text>
     </g>
    </g>
    <g id="xtick_5">
     <g id="line2d_5">
      <g>
       <use xlink:href="#mcfd264ed03" x="661.104242" y="330.651043" style="stroke: #000000; stroke-width: 0.8"/>
      </g>
     </g>
     <g id="text_5">
      <text style="font-size: 10px; font-family: 'Noto Sans CJK JP'" transform="translate(599.842188 361.595471) rotate(-15)">MILP综合误差</text>
     </g>
    </g>
   </g>
   <g id="matplotlib.axis_2">
    <g id="ytick_1">
     <g id="line2d_6">
      <path d="M 51.41 330.651043 
L 745.2 330.651043 
" clip-path="url(#pfe0eb2d79d)" style="fill: none; stroke: #b0b0b0; stroke-opacity: 0.25; stroke-width: 0.8; stroke-linecap: square"/>
     </g>
     <g id="line2d_7">
      <defs>
       <path id="m739b7be8c7" d="M 0 0 
L -3.5 0 
" style="stroke: #000000; stroke-width: 0.8"/>
      </defs>
      <g>
       <use xlink:href="#m739b7be8c7" x="51.41" y="330.651043" style="stroke: #000000; stroke-width: 0.8"/>
      </g>
     </g>
     <g id="text_6">
      <text style="font-size: 10px; font-family: 'Noto Sans CJK JP'; text-anchor: end" x="44.41" y="334.63073" transform="rotate(-0 44.41 334.63073)">0.00</text>
     </g>
    </g>
    <g id="ytick_2">
     <g id="line2d_8">
      <path d="M 51.41 266.417862 
L 745.2 266.417862 
" clip-path="url(#pfe0eb2d79d)" style="fill: none; stroke: #b0b0b0; stroke-opacity: 0.25; stroke-width: 0.8; stroke-linecap: square"/>
     </g>
     <g id="line2d_9">
      <g>
       <use xlink:href="#m739b7be8c7" x="51.41" y="266.417862" style="stroke: #000000; stroke-width: 0.8"/>
      </g>
     </g>
     <g id="text_7">
      <text style="font-size: 10px; font-family: 'Noto Sans CJK JP'; text-anchor: end" x="44.41" y="270.397549" transform="rotate(-0 44.41 270.397549)">0.05</text>
     </g>
    </g>
    <g id="ytick_3">
     <g id="line2d_10">
      <path d="M 51.41 202.184681 
L 745.2 202.184681 
" clip-path="url(#pfe0eb2d79d)" style="fill: none; stroke: #b0b0b0; stroke-opacity: 0.25; stroke-width: 0.8; stroke-linecap: square"/>
     </g>
     <g id="line2d_11">
      <g>
       <use xlink:href="#m739b7be8c7" x="51.41" y="202.184681" style="stroke: #000000; stroke-width: 0.8"/>
      </g>
     </g>
     <g id="text_8">
      <text style="font-size: 10px; font-family: 'Noto Sans CJK JP'; text-anchor: end" x="44.41" y="206.164369" transform="rotate(-0 44.41 206.164369)">0.10</text>
     </g>
    </g>
    <g id="ytick_4">
     <g id="line2d_12">
      <path d="M 51.41 137.9515 
L 745.2 137.9515 
" clip-path="url(#pfe0eb2d79d)" style="fill: none; stroke: #b0b0b0; stroke-opacity: 0.25; stroke-width: 0.8; stroke-linecap: square"/>
     </g>
     <g id="line2d_13">
      <g>
       <use xlink:href="#m739b7be8c7" x="51.41" y="137.9515" style="stroke: #000000; stroke-width: 0.8"/>
      </g>
     </g>
     <g id="text_9">
      <text style="font-size: 10px; font-family: 'Noto Sans CJK JP'; text-anchor: end" x="44.41" y="141.931188" transform="rotate(-0 44.41 141.931188)">0.15</text>
     </g>
    </g>
    <g id="ytick_5">
     <g id="line2d_14">
      <path d="M 51.41 73.71832 
L 745.2 73.71832 
" clip-path="url(#pfe0eb2d79d)" style="fill: none; stroke: #b0b0b0; stroke-opacity: 0.25; stroke-width: 0.8; stroke-linecap: square"/>
     </g>
     <g id="line2d_15">
      <g>
       <use xlink:href="#m739b7be8c7" x="51.41" y="73.71832" style="stroke: #000000; stroke-width: 0.8"/>
      </g>
     </g>
     <g id="text_10">
      <text style="font-size: 10px; font-family: 'Noto Sans CJK JP'; text-anchor: end" x="44.41" y="77.698007" transform="rotate(-0 44.41 77.698007)">0.20</text>
     </g>
    </g>
    <g id="text_11">
     <text style="font-size: 10px; font-family: 'Noto Sans CJK JP'; text-anchor: middle" x="18.689688" y="178.405521" transform="rotate(-90 18.689688 178.405521)">误差</text>
    </g>
   </g>
   <g id="patch_18">
    <path d="M 51.41 330.651043 
L 51.41 26.16 
" style="fill: none; stroke: #000000; stroke-width: 0.8; stroke-linejoin: miter; stroke-linecap: square"/>
   </g>
   <g id="patch_19">
    <path d="M 745.2 330.651043 
L 745.2 26.16 
" style="fill: none; stroke: #000000; stroke-width: 0.8; stroke-linejoin: miter; stroke-linecap: square"/>
   </g>
   <g id="patch_20">
    <path d="M 51.41 330.651043 
L 745.2 330.651043 
" style="fill: none; stroke: #000000; stroke-width: 0.8; stroke-linejoin: miter; stroke-linecap: square"/>
   </g>
   <g id="patch_21">
    <path d="M 51.41 26.16 
L 745.2 26.16 
" style="fill: none; stroke: #000000; stroke-width: 0.8; stroke-linejoin: miter; stroke-linecap: square"/>
   </g>
   <g id="text_12">
    <text style="font-size: 8px; font-family: 'Noto Sans CJK JP'; text-anchor: middle" x="100.465859" y="313.370636" transform="rotate(-0 100.465859 313.370636)">0.00</text>
   </g>
   <g id="text_13">
    <text style="font-size: 8px; font-family: 'Noto Sans CJK JP'; text-anchor: middle" x="231.86548" y="313.38399" transform="rotate(-0 231.86548 313.38399)">0.00</text>
   </g>
   <g id="text_14">
    <text style="font-size: 8px; font-family: 'Noto Sans CJK JP'; text-anchor: middle" x="363.265101" y="313.388241" transform="rotate(-0 363.265101 313.388241)">0.00</text>
   </g>
   <g id="text_15">
    <text style="font-size: 8px; font-family: 'Noto Sans CJK JP'; text-anchor: middle" x="494.664722" y="277.462207" transform="rotate(-0 494.664722 277.462207)">0.03</text>
   </g>
   <g id="text_16">
    <text style="font-size: 8px; font-family: 'Noto Sans CJK JP'; text-anchor: middle" x="626.064343" y="231.991193" transform="rotate(-0 626.064343 231.991193)">0.06</text>
   </g>
   <g id="text_17">
    <text style="font-size: 8px; font-family: 'Noto Sans CJK JP'; text-anchor: middle" x="135.505758" y="313.306751" transform="rotate(-0 135.505758 313.306751)">0.00</text>
   </g>
   <g id="text_18">
    <text style="font-size: 8px; font-family: 'Noto Sans CJK JP'; text-anchor: middle" x="266.905379" y="313.334985" transform="rotate(-0 266.905379 313.334985)">0.00</text>
   </g>
   <g id="text_19">
    <text style="font-size: 8px; font-family: 'Noto Sans CJK JP'; text-anchor: middle" x="398.305" y="313.350862" transform="rotate(-0 398.305 313.350862)">0.00</text>
   </g>
   <g id="text_20">
    <text style="font-size: 8px; font-family: 'Noto Sans CJK JP'; text-anchor: middle" x="529.704621" y="69.809745" transform="rotate(-0 529.704621 69.809745)">0.19</text>
   </g>
   <g id="text_21">
    <text style="font-size: 8px; font-family: 'Noto Sans CJK JP'; text-anchor: middle" x="661.104242" y="137.989962" transform="rotate(-0 661.104242 137.989962)">0.14</text>
   </g>
   <g id="text_22">
    <text style="font-size: 8px; font-family: 'Noto Sans CJK JP'; text-anchor: middle" x="170.545657" y="313.13905" transform="rotate(-0 170.545657 313.13905)">0.00</text>
   </g>
   <g id="text_23">
    <text style="font-size: 8px; font-family: 'Noto Sans CJK JP'; text-anchor: middle" x="301.945278" y="313.205241" transform="rotate(-0 301.945278 313.205241)">0.00</text>
   </g>
   <g id="text_24">
    <text style="font-size: 8px; font-family: 'Noto Sans CJK JP'; text-anchor: middle" x="433.344899" y="313.25202" transform="rotate(-0 433.344899 313.25202)">0.00</text>
   </g>
   <g id="text_25">
    <text style="font-size: 8px; font-family: 'Noto Sans CJK JP'; text-anchor: middle" x="564.74452" y="101.570994" transform="rotate(-0 564.74452 101.570994)">0.16</text>
   </g>
   <g id="text_26">
    <text style="font-size: 8px; font-family: 'Noto Sans CJK JP'; text-anchor: middle" x="696.144141" y="88.007279" transform="rotate(-0 696.144141 88.007279)">0.18</text>
   </g>
   <g id="text_27">
    <text style="font-size: 12px; font-family: 'Noto Sans CJK JP'; text-anchor: middle" x="398.305" y="20.16" transform="rotate(-0 398.305 20.16)">MILP规模相似性（越低越接近参考集）</text>
   </g>
   <g id="legend_1">
    <g id="patch_22">
     <path d="M 670.229687 79.91 
L 738.2 79.91 
Q 740.2 79.91 740.2 77.91 
L 740.2 33.16 
Q 740.2 31.16 738.2 31.16 
L 670.229687 31.16 
Q 668.229687 31.16 668.229687 33.16 
L 668.229687 77.91 
Q 668.229687 79.91 670.229687 79.91 
z
" style="fill: #ffffff; opacity: 0.8; stroke: #cccccc; stroke-linejoin: miter"/>
    </g>
    <g id="patch_23">
     <path d="M 672.229687 43.119375 
L 692.229687 43.119375 
L 692.229687 36.119375 
L 672.229687 36.119375 
z
" style="fill: #1f77b4"/>
    </g>
    <g id="text_28">
     <text style="font-size: 10px; font-family: 'Noto Sans CJK JP'; text-anchor: start" x="700.229687" y="43.119375" transform="rotate(-0 700.229687 43.119375)">steps=2</text>
    </g>
    <g id="patch_24">
     <path d="M 672.229687 58.369375 
L 692.229687 58.369375 
L 692.229687 51.369375 
L 672.229687 51.369375 
z
" style="fill: #ff7f0e"/>
    </g>
    <g id="text_29">
     <text style="font-size: 10px; font-family: 'Noto Sans CJK JP'; text-anchor: start" x="700.229687" y="58.369375" transform="rotate(-0 700.229687 58.369375)">steps=3</text>
    </g>
    <g id="patch_25">
     <path d="M 672.229687 73.619375 
L 692.229687 73.619375 
L 692.229687 66.619375 
L 672.229687 66.619375 
z
" style="fill: #2ca02c"/>
    </g>
    <g id="text_30">
     <text style="font-size: 10px; font-family: 'Noto Sans CJK JP'; text-anchor: start" x="700.229687" y="73.619375" transform="rotate(-0 700.229687 73.619375)">steps=4</text>
    </g>
   </g>
  </g>
 </g>
 <defs>
  <clipPath id="pfe0eb2d79d">
   <rect x="51.41" y="26.16" width="693.79" height="304.491043"/>
  </clipPath>
 </defs>
</svg>
