<svg xmlns="http://www.w3.org/2000/svg" width="1080" height="600" viewBox="0 0 1080 600">
<rect width="100%" height="100%" fill="#ffffff"/>
<text x="540.0" y="34" text-anchor="middle" font-size="22" font-family="Arial" font-weight="700">Solver Behavior Error vs Reference</text>
<line x1="86" y1="468" x2="1052" y2="468" stroke="#111827" stroke-width="1"/>
<line x1="86" y1="66" x2="86" y2="468" stroke="#111827" stroke-width="1"/>
<line x1="86" y1="468.0" x2="1052" y2="468.0" stroke="#e5e7eb"/>
<text x="76" y="472.0" text-anchor="end" font-size="12" font-family="Arial">0.00</text>
<line x1="86" y1="387.6" x2="1052" y2="387.6" stroke="#e5e7eb"/>
<text x="76" y="391.6" text-anchor="end" font-size="12" font-family="Arial">0.18</text>
<line x1="86" y1="307.2" x2="1052" y2="307.2" stroke="#e5e7eb"/>
<text x="76" y="311.2" text-anchor="end" font-size="12" font-family="Arial">0.36</text>
<line x1="86" y1="226.8" x2="1052" y2="226.8" stroke="#e5e7eb"/>
<text x="76" y="230.8" text-anchor="end" font-size="12" font-family="Arial">0.54</text>
<line x1="86" y1="146.4" x2="1052" y2="146.4" stroke="#e5e7eb"/>
<text x="76" y="150.4" text-anchor="end" font-size="12" font-family="Arial">0.72</text>
<line x1="86" y1="66.0" x2="1052" y2="66.0" stroke="#e5e7eb"/>
<text x="76" y="70.0" text-anchor="end" font-size="12" font-family="Arial">0.90</text>
<rect x="119.6" y="464.8" width="34.4" height="3.2" fill="#2563eb"/>
<text x="136.8" y="460.8" text-anchor="middle" font-size="10" font-family="Arial">0.01</text>
<rect x="161.6" y="420.3" width="34.4" height="47.7" fill="#059669"/>
<text x="178.8" y="416.3" text-anchor="middle" font-size="10" font-family="Arial">0.11</text>
<rect x="203.6" y="415.8" width="34.4" height="52.2" fill="#dc2626"/>
<text x="220.8" y="411.8" text-anchor="middle" font-size="10" font-family="Arial">0.12</text>
<text x="182.6" y="496" text-anchor="middle" font-size="12" font-family="Arial">timeout delta</text>
<rect x="312.8" y="434.3" width="34.4" height="33.7" fill="#2563eb"/>
<text x="330.0" y="430.3" text-anchor="middle" font-size="10" font-family="Arial">0.08</text>
<rect x="354.8" y="364.1" width="34.4" height="103.9" fill="#059669"/>
<text x="372.0" y="360.1" text-anchor="middle" font-size="10" font-family="Arial">0.23</text>
<rect x="396.8" y="343.0" width="34.4" height="125.0" fill="#dc2626"/>
<text x="414.0" y="339.0" text-anchor="middle" font-size="10" font-family="Arial">0.28</text>
<text x="375.8" y="496" text-anchor="middle" font-size="12" font-family="Arial">duration rel</text>
<rect x="506.0" y="127.3" width="34.4" height="340.7" fill="#2563eb"/>
<text x="523.2" y="123.3" text-anchor="middle" font-size="10" font-family="Arial">0.76</text>
<rect x="548.0" y="280.3" width="34.4" height="187.7" fill="#059669"/>
<text x="565.2" y="276.3" text-anchor="middle" font-size="10" font-family="Arial">0.42</text>
<rect x="590.0" y="239.3" width="34.4" height="228.7" fill="#dc2626"/>
<text x="607.2" y="235.3" text-anchor="middle" font-size="10" font-family="Arial">0.51</text>
<text x="569.0" y="496" text-anchor="middle" font-size="12" font-family="Arial">objective rel</text>
<rect x="699.2" y="458.6" width="34.4" height="9.4" fill="#2563eb"/>
<text x="716.4" y="454.6" text-anchor="middle" font-size="10" font-family="Arial">0.02</text>
<rect x="741.2" y="443.7" width="34.4" height="24.3" fill="#059669"/>
<text x="758.4" y="439.7" text-anchor="middle" font-size="10" font-family="Arial">0.05</text>
<rect x="783.2" y="451.1" width="34.4" height="16.9" fill="#dc2626"/>
<text x="800.4" y="447.1" text-anchor="middle" font-size="10" font-family="Arial">0.04</text>
<text x="762.2" y="496" text-anchor="middle" font-size="12" font-family="Arial">gap abs</text>
<rect x="892.4" y="468.0" width="34.4" height="0.0" fill="#2563eb"/>
<text x="909.6" y="464.0" text-anchor="middle" font-size="10" font-family="Arial">0.00</text>
<rect x="934.4" y="460.4" width="34.4" height="7.6" fill="#059669"/>
<text x="951.6" y="456.4" text-anchor="middle" font-size="10" font-family="Arial">0.02</text>
<rect x="976.4" y="459.0" width="34.4" height="9.0" fill="#dc2626"/>
<text x="993.6" y="455.0" text-anchor="middle" font-size="10" font-family="Arial">0.02</text>
<text x="955.4" y="496" text-anchor="middle" font-size="12" font-family="Arial">1-status cos</text>
<rect x="98" y="71" width="16" height="10" fill="#2563eb"/>
<text x="122" y="80" font-size="13" font-family="Arial">steps=2</text>
<rect x="98" y="95" width="16" height="10" fill="#059669"/>
<text x="122" y="104" font-size="13" font-family="Arial">steps=3</text>
<rect x="98" y="119" width="16" height="10" fill="#dc2626"/>
<text x="122" y="128" font-size="13" font-family="Arial">steps=4</text>
<text x="20" y="300.0" transform="rotate(-90 20 300.0)" text-anchor="middle" font-size="14" font-family="Arial">lower is better</text>
</svg>