<svg xmlns="http://www.w3.org/2000/svg" width="980" height="560" viewBox="0 0 980 560">
<rect width="100%" height="100%" fill="#ffffff"/>
<text x="490.0" y="32" text-anchor="middle" font-size="22" font-family="Arial" font-weight="700">Training Loss by Message Passing Steps</text>
<line x1="82" y1="496" x2="956" y2="496" stroke="#111827" stroke-width="1"/>
<line x1="82" y1="58" x2="82" y2="496" stroke="#111827" stroke-width="1"/>
<line x1="82" y1="496.0" x2="956" y2="496.0" stroke="#e5e7eb"/>
<text x="72" y="500.0" text-anchor="end" font-size="12" font-family="Arial">0.00</text>
<line x1="82" y1="408.4" x2="956" y2="408.4" stroke="#e5e7eb"/>
<text x="72" y="412.4" text-anchor="end" font-size="12" font-family="Arial">1.64</text>
<line x1="82" y1="320.8" x2="956" y2="320.8" stroke="#e5e7eb"/>
<text x="72" y="324.8" text-anchor="end" font-size="12" font-family="Arial">3.27</text>
<line x1="82" y1="233.2" x2="956" y2="233.2" stroke="#e5e7eb"/>
<text x="72" y="237.2" text-anchor="end" font-size="12" font-family="Arial">4.91</text>
<line x1="82" y1="145.6" x2="956" y2="145.6" stroke="#e5e7eb"/>
<text x="72" y="149.6" text-anchor="end" font-size="12" font-family="Arial">6.54</text>
<line x1="82" y1="58.0" x2="956" y2="58.0" stroke="#e5e7eb"/>
<text x="72" y="62.0" text-anchor="end" font-size="12" font-family="Arial">8.18</text>
<text x="82.0" y="520" text-anchor="middle" font-size="12" font-family="Arial">1</text>
<text x="299.7" y="520" text-anchor="middle" font-size="12" font-family="Arial">200</text>
<text x="518.5" y="520" text-anchor="middle" font-size="12" font-family="Arial">400</text>
<text x="737.2" y="520" text-anchor="middle" font-size="12" font-family="Arial">600</text>
<text x="956.0" y="520" text-anchor="middle" font-size="12" font-family="Arial">800</text>
<polyline points="82.0,78.9 87.5,101.3 92.9,109.5 98.4,118.3 103.9,120.0 109.3,122.1 114.8,134.0 120.3,162.9 125.8,203.9 131.2,231.1 136.7,262.3 142.2,275.5 147.6,301.6 153.1,309.0 158.6,342.7 164.0,374.7 169.5,348.7 175.0,393.9 180.4,384.8 185.9,405.9 191.4,414.5 196.9,427.9 202.3,426.8 207.8,421.8 213.3,438.1 218.7,444.4 224.2,445.7 229.7,447.0 235.1,446.6 240.6,443.9 246.1,459.2 251.5,454.4 257.0,458.0 262.5,459.7 268.0,450.1 273.4,447.9 278.9,463.8 284.4,461.0 289.8,444.4 295.3,463.3 300.8,469.1 306.2,453.5 311.7,451.3 317.2,471.8 322.7,470.5 328.1,465.5 333.6,472.9 339.1,466.4 344.5,476.9 350.0,476.1 355.5,474.5 360.9,472.5 366.4,445.9 371.9,472.2 377.3,475.3 382.8,449.9 388.3,477.5 393.8,475.3 399.2,476.2 404.7,481.2 410.2,471.4 415.6,476.2 421.1,437.5 426.6,467.8 432.0,481.3 437.5,480.1 443.0,475.2 448.4,480.9 453.9,479.5 459.4,475.1 464.9,470.9 470.3,479.0 475.8,479.2 481.3,462.5 486.7,483.1 492.2,484.0 497.7,487.0 503.1,487.3 508.6,483.9 514.1,480.6 519.5,460.8 525.0,477.4 530.5,484.4 536.0,426.0 541.4,447.2 546.9,483.3 552.4,483.8 557.8,486.9 563.3,487.1 568.8,488.4 574.2,485.7 579.7,481.5 585.2,483.4 590.6,486.9 596.1,487.7 601.6,485.7 607.1,482.8 612.5,486.7 618.0,469.7 623.5,482.9 628.9,488.4 634.4,483.0 639.9,482.3 645.3,480.1 650.8,480.9 656.3,486.4 661.7,488.2 667.2,487.5 672.7,487.6 678.2,483.8 683.6,483.5 689.1,485.4 694.6,487.7 700.0,480.1 705.5,390.2 711.0,470.9 716.4,484.6 721.9,487.4 727.4,488.2 732.9,488.9 738.3,480.3 743.8,483.0 749.3,472.4 754.7,486.4 760.2,487.6 765.7,482.9 771.1,475.6 776.6,478.1 782.1,487.2 787.5,478.3 793.0,487.1 798.5,487.3 804.0,489.9 809.4,489.9 814.9,490.7 820.4,487.6 825.8,489.6 831.3,490.3 836.8,490.7 842.2,490.3 847.7,490.9 853.2,456.0 858.6,465.2 864.1,475.6 869.6,475.8 875.1,485.3 880.5,487.7 886.0,490.2 891.5,490.1 896.9,490.5 902.4,489.1 907.9,485.1 913.3,467.7 918.8,478.7 924.3,487.4 929.7,488.2 935.2,490.5 940.7,488.5 946.2,491.2 951.6,490.7 956.0,486.2" fill="none" stroke="#2563eb" stroke-width="2.2"/>
<polyline points="82.0,78.9 87.5,101.9 92.9,109.6 98.4,118.9 103.9,120.2 109.3,125.1 114.8,153.9 120.3,203.5 125.8,243.3 131.2,265.5 136.7,287.1 142.2,299.8 147.6,317.6 153.1,309.6 158.6,348.8 164.0,362.3 169.5,360.3 175.0,386.2 180.4,381.1 185.9,389.3 191.4,411.4 196.9,418.0 202.3,421.2 207.8,418.2 213.3,420.7 218.7,437.0 224.2,426.4 229.7,432.3 235.1,439.7 240.6,435.6 246.1,449.5 251.5,445.2 257.0,449.3 262.5,455.4 268.0,451.1 273.4,459.2 278.9,441.8 284.4,457.3 289.8,445.9 295.3,454.1 300.8,451.9 306.2,449.9 311.7,448.8 317.2,463.7 322.7,440.9 328.1,451.5 333.6,462.7 339.1,461.7 344.5,469.5 350.0,465.7 355.5,466.2 360.9,458.9 366.4,471.5 371.9,469.2 377.3,465.1 382.8,450.7 388.3,458.7 393.8,467.2 399.2,473.1 404.7,472.5 410.2,463.5 415.6,470.2 421.1,468.5 426.6,480.1 432.0,467.3 437.5,461.3 443.0,475.0 448.4,478.8 453.9,479.6 459.4,466.6 464.9,465.8 470.3,470.6 475.8,470.9 481.3,466.4 486.7,482.6 492.2,481.7 497.7,467.3 503.1,474.8 508.6,482.6 514.1,483.6 519.5,477.9 525.0,480.6 530.5,483.2 536.0,460.7 541.4,439.2 546.9,459.0 552.4,478.5 557.8,482.3 563.3,482.9 568.8,484.6 574.2,482.3 579.7,484.6 585.2,481.9 590.6,481.7 596.1,482.4 601.6,471.9 607.1,482.3 612.5,479.1 618.0,443.8 623.5,467.8 628.9,480.2 634.4,483.6 639.9,485.6 645.3,485.1 650.8,463.6 656.3,479.2 661.7,484.3 667.2,485.3 672.7,481.1 678.2,481.8 683.6,481.7 689.1,486.0 694.6,487.1 700.0,482.7 705.5,470.9 711.0,479.2 716.4,482.8 721.9,482.0 727.4,486.2 732.9,486.6 738.3,471.1 743.8,471.7 749.3,484.9 754.7,474.0 760.2,475.5 765.7,486.7 771.1,484.2 776.6,487.0 782.1,485.5 787.5,487.9 793.0,486.4 798.5,488.4 804.0,478.2 809.4,471.3 814.9,484.1 820.4,486.9 825.8,487.8 831.3,488.5 836.8,488.2 842.2,488.5 847.7,487.6 853.2,424.7 858.6,458.6 864.1,483.8 869.6,485.6 875.1,488.7 880.5,488.5 886.0,489.0 891.5,488.0 896.9,481.4 902.4,486.6 907.9,483.5 913.3,488.7 918.8,489.6 924.3,489.7 929.7,489.2 935.2,489.8 940.7,490.6 946.2,489.4 951.6,480.6 956.0,474.6" fill="none" stroke="#059669" stroke-width="2.2"/>
<polyline points="82.0,78.9 87.5,101.9 92.9,110.8 98.4,119.8 103.9,120.9 109.3,127.1 114.8,152.3 120.3,194.3 125.8,230.5 131.2,248.0 136.7,264.2 142.2,270.7 147.6,300.7 153.1,283.2 158.6,329.4 164.0,346.7 169.5,341.0 175.0,368.0 180.4,363.6 185.9,380.4 191.4,394.5 196.9,416.0 202.3,402.0 207.8,412.0 213.3,418.3 218.7,435.5 224.2,435.8 229.7,424.3 235.1,440.2 240.6,443.0 246.1,442.7 251.5,447.2 257.0,452.6 262.5,452.4 268.0,461.9 273.4,454.2 278.9,458.5 284.4,459.8 289.8,439.6 295.3,460.4 300.8,459.6 306.2,445.9 311.7,460.5 317.2,469.6 322.7,465.2 328.1,440.2 333.6,468.2 339.1,472.1 344.5,474.8 350.0,475.8 355.5,469.1 360.9,446.7 366.4,472.1 371.9,475.3 377.3,476.0 382.8,466.7 388.3,479.2 393.8,470.4 399.2,473.8 404.7,465.2 410.2,471.0 415.6,480.4 421.1,473.3 426.6,468.5 432.0,470.6 437.5,465.9 443.0,479.4 448.4,480.2 453.9,479.4 459.4,480.9 464.9,471.0 470.3,469.1 475.8,481.3 481.3,484.0 486.7,485.3 492.2,483.5 497.7,475.2 503.1,482.1 508.6,477.9 514.1,465.6 519.5,476.5 525.0,465.9 530.5,482.0 536.0,478.1 541.4,474.1 546.9,477.3 552.4,479.6 557.8,485.8 563.3,476.7 568.8,477.6 574.2,446.3 579.7,451.7 585.2,474.3 590.6,483.0 596.1,482.7 601.6,483.8 607.1,485.7 612.5,483.9 618.0,476.2 623.5,480.4 628.9,485.7 634.4,485.2 639.9,485.1 645.3,484.8 650.8,486.3 656.3,487.3 661.7,485.8 667.2,483.4 672.7,487.4 678.2,484.1 683.6,477.2 689.1,474.5 694.6,465.3 700.0,483.1 705.5,486.4 711.0,486.2 716.4,487.4 721.9,484.9 727.4,477.0 732.9,483.9 738.3,484.8 743.8,487.7 749.3,488.3 754.7,487.9 760.2,487.8 765.7,447.9 771.1,461.5 776.6,484.9 782.1,486.1 787.5,487.9 793.0,488.1 798.5,489.1 804.0,489.5 809.4,488.2 814.9,488.7 820.4,482.3 825.8,480.0 831.3,487.7 836.8,489.5 842.2,489.1 847.7,490.0 853.2,455.0 858.6,442.9 864.1,469.3 869.6,485.5 875.1,488.2 880.5,488.8 886.0,488.8 891.5,488.7 896.9,481.3 902.4,482.4 907.9,482.7 913.3,489.1 918.8,489.6 924.3,488.8 929.7,488.0 935.2,489.8 940.7,490.0 946.2,490.3 951.6,489.4 956.0,489.2" fill="none" stroke="#dc2626" stroke-width="2.2"/>
<rect x="94" y="65" width="16" height="10" fill="#2563eb"/>
<text x="118" y="74" font-size="13" font-family="Arial">steps=2</text>
<rect x="94" y="89" width="16" height="10" fill="#059669"/>
<text x="118" y="98" font-size="13" font-family="Arial">steps=3</text>
<rect x="94" y="113" width="16" height="10" fill="#dc2626"/>
<text x="118" y="122" font-size="13" font-family="Arial">steps=4</text>
<text x="490.0" y="542" text-anchor="middle" font-size="14" font-family="Arial">epoch</text>
<text x="20" y="280.0" transform="rotate(-90 20 280.0)" text-anchor="middle" font-size="14" font-family="Arial">loss</text>
</svg>