<?xml version="1.0" encoding="utf-8" standalone="no"?>
<!DOCTYPE svg PUBLIC "-//W3C//DTD SVG 1.1//EN"
  "http://www.w3.org/Graphics/SVG/1.1/DTD/svg11.dtd">
<svg xmlns:xlink="http://www.w3.org/1999/xlink" width="756pt" height="374.4pt" viewBox="0 0 756 374.4" xmlns="http://www.w3.org/2000/svg" version="1.1">
 <metadata>
  <rdf:RDF xmlns:dc="http://purl.org/dc/elements/1.1/" xmlns:cc="http://creativecommons.org/ns#" xmlns:rdf="http://www.w3.org/1999/02/22-rdf-syntax-ns#">
   <cc:Work>
    <dc:type rdf:resource="http://purl.org/dc/dcmitype/StillImage"/>
    <dc:date>2026-05-26T03:29:31.012412</dc:date>
    <dc:format>image/svg+xml</dc:format>
    <dc:creator>
     <cc:Agent>
      <dc:title>Matplotlib v3.10.3, https://matplotlib.org/</dc:title>
     </cc:Agent>
    </dc:creator>
   </cc:Work>
  </rdf:RDF>
 </metadata>
 <defs>
  <style type="text/css">*{stroke-linejoin: round; stroke-linecap: butt}</style>
 </defs>
 <g id="figure_1">
  <g id="patch_1">
   <path d="M 0 374.4 
L 756 374.4 
L 756 0 
L 0 0 
z
" style="fill: #ffffff"/>
  </g>
  <g id="axes_1">
   <g id="patch_2">
    <path d="M 45.83 331.349854 
L 745.2 331.349854 
L 745.2 26.16 
L 45.83 26.16 
z
" style="fill: #ffffff"/>
   </g>
   <g id="patch_3">
    <path d="M 77.619545 331.349854 
L 112.941263 331.349854 
L 112.941263 328.38305 
L 77.619545 328.38305 
z
" clip-path="url(#p000163f5ed)" style="fill: #1f77b4"/>
   </g>
   <g id="patch_4">
    <path d="M 210.075985 331.349854 
L 245.397702 331.349854 
L 245.397702 97.850641 
L 210.075985 97.850641 
z
" clip-path="url(#p000163f5ed)" style="fill: #1f77b4"/>
   </g>
   <g id="patch_5">
    <path d="M 342.532424 331.349854 
L 377.854141 331.349854 
L 377.854141 205.876031 
L 342.532424 205.876031 
z
" clip-path="url(#p000163f5ed)" style="fill: #1f77b4"/>
   </g>
   <g id="patch_6">
    <path d="M 474.988864 331.349854 
L 510.310581 331.349854 
L 510.310581 180.95891 
L 474.988864 180.95891 
z
" clip-path="url(#p000163f5ed)" style="fill: #1f77b4"/>
   </g>
   <g id="patch_7">
    <path d="M 607.445303 331.349854 
L 642.76702 331.349854 
L 642.76702 238.692874 
L 607.445303 238.692874 
z
" clip-path="url(#p000163f5ed)" style="fill: #1f77b4"/>
   </g>
   <g id="patch_8">
    <path d="M 112.941263 331.349854 
L 148.26298 331.349854 
L 148.26298 324.173638 
L 112.941263 324.173638 
z
" clip-path="url(#p000163f5ed)" style="fill: #ff7f0e"/>
   </g>
   <g id="patch_9">
    <path d="M 245.397702 331.349854 
L 280.719419 331.349854 
L 280.719419 142.134353 
L 245.397702 142.134353 
z
" clip-path="url(#p000163f5ed)" style="fill: #ff7f0e"/>
   </g>
   <g id="patch_10">
    <path d="M 377.854141 331.349854 
L 413.175859 331.349854 
L 413.175859 234.482984 
L 377.854141 234.482984 
z
" clip-path="url(#p000163f5ed)" style="fill: #ff7f0e"/>
   </g>
   <g id="patch_11">
    <path d="M 510.310581 331.349854 
L 545.632298 331.349854 
L 545.632298 99.814566 
L 510.310581 99.814566 
z
" clip-path="url(#p000163f5ed)" style="fill: #ff7f0e"/>
   </g>
   <g id="patch_12">
    <path d="M 642.76702 331.349854 
L 678.088737 331.349854 
L 678.088737 238.92267 
L 642.76702 238.92267 
z
" clip-path="url(#p000163f5ed)" style="fill: #ff7f0e"/>
   </g>
   <g id="patch_13">
    <path d="M 148.26298 331.349854 
L 183.584697 331.349854 
L 183.584697 305.903757 
L 148.26298 305.903757 
z
" clip-path="url(#p000163f5ed)" style="fill: #2ca02c"/>
   </g>
   <g id="patch_14">
    <path d="M 280.719419 331.349854 
L 316.041136 331.349854 
L 316.041136 87.197971 
L 280.719419 87.197971 
z
" clip-path="url(#p000163f5ed)" style="fill: #2ca02c"/>
   </g>
   <g id="patch_15">
    <path d="M 413.175859 331.349854 
L 448.497576 331.349854 
L 448.497576 219.013387 
L 413.175859 219.013387 
z
" clip-path="url(#p000163f5ed)" style="fill: #2ca02c"/>
   </g>
   <g id="patch_16">
    <path d="M 545.632298 331.349854 
L 580.954015 331.349854 
L 580.954015 124.710804 
L 545.632298 124.710804 
z
" clip-path="url(#p000163f5ed)" style="fill: #2ca02c"/>
   </g>
   <g id="patch_17">
    <path d="M 678.088737 331.349854 
L 713.410455 331.349854 
L 713.410455 224.062688 
L 678.088737 224.062688 
z
" clip-path="url(#p000163f5ed)" style="fill: #2ca02c"/>
   </g>
   <g id="matplotlib.axis_1">
    <g id="xtick_1">
     <g id="line2d_1">
      <defs>
       <path id="m4ca16e3901" d="M 0 0 
L 0 3.5 
" style="stroke: #000000; stroke-width: 0.8"/>
      </defs>
      <g>
       <use xlink:href="#m4ca16e3901" x="130.602121" y="331.349854" style="stroke: #000000; stroke-width: 0.8"/>
      </g>
     </g>
     <g id="text_1">
      <text style="font-size: 10px; font-family: 'Noto Sans CJK JP'" transform="translate(93.121462 355.922077) rotate(-15)">类型JSD</text>
     </g>
    </g>
    <g id="xtick_2">
     <g id="line2d_2">
      <g>
       <use xlink:href="#m4ca16e3901" x="263.058561" y="331.349854" style="stroke: #000000; stroke-width: 0.8"/>
      </g>
     </g>
     <g id="text_2">
      <text style="font-size: 10px; font-family: 'Noto Sans CJK JP'" transform="translate(206.259385 361.098458) rotate(-15)">晚点时长JSD</text>
     </g>
    </g>
    <g id="xtick_3">
     <g id="line2d_3">
      <g>
       <use xlink:href="#m4ca16e3901" x="395.515" y="331.349854" style="stroke: #000000; stroke-width: 0.8"/>
      </g>
     </g>
     <g id="text_3">
      <text style="font-size: 10px; font-family: 'Noto Sans CJK JP'" transform="translate(338.715824 361.098458) rotate(-15)">限速程度JSD</text>
     </g>
    </g>
    <g id="xtick_4">
     <g id="line2d_4">
      <g>
       <use xlink:href="#m4ca16e3901" x="527.971439" y="331.349854" style="stroke: #000000; stroke-width: 0.8"/>
      </g>
     </g>
     <g id="text_4">
      <text style="font-size: 10px; font-family: 'Noto Sans CJK JP'" transform="translate(471.172264 361.098458) rotate(-15)">中断时长JSD</text>
     </g>
    </g>
    <g id="xtick_5">
     <g id="line2d_5">
      <g>
       <use xlink:href="#m4ca16e3901" x="660.427879" y="331.349854" style="stroke: #000000; stroke-width: 0.8"/>
      </g>
     </g>
     <g id="text_5">
      <text style="font-size: 10px; font-family: 'Noto Sans CJK JP'" transform="translate(601.879472 361.567163) rotate(-15)">场景综合误差</text>
     </g>
    </g>
   </g>
   <g id="matplotlib.axis_2">
    <g id="ytick_1">
     <g id="line2d_6">
      <path d="M 45.83 331.349854 
L 745.2 331.349854 
" clip-path="url(#p000163f5ed)" style="fill: none; stroke: #b0b0b0; stroke-opacity: 0.25; stroke-width: 0.8; stroke-linecap: square"/>
     </g>
     <g id="line2d_7">
      <defs>
       <path id="m5d321d8381" d="M 0 0 
L -3.5 0 
" style="stroke: #000000; stroke-width: 0.8"/>
      </defs>
      <g>
       <use xlink:href="#m5d321d8381" x="45.83" y="331.349854" style="stroke: #000000; stroke-width: 0.8"/>
      </g>
     </g>
     <g id="text_6">
      <text style="font-size: 10px; font-family: 'Noto Sans CJK JP'; text-anchor: end" x="38.83" y="335.329542" transform="rotate(-0 38.83 335.329542)">0.0</text>
     </g>
    </g>
    <g id="ytick_2">
     <g id="line2d_8">
      <path d="M 45.83 282.235747 
L 745.2 282.235747 
" clip-path="url(#p000163f5ed)" style="fill: none; stroke: #b0b0b0; stroke-opacity: 0.25; stroke-width: 0.8; stroke-linecap: square"/>
     </g>
     <g id="line2d_9">
      <g>
       <use xlink:href="#m5d321d8381" x="45.83" y="282.235747" style="stroke: #000000; stroke-width: 0.8"/>
      </g>
     </g>
     <g id="text_7">
      <text style="font-size: 10px; font-family: 'Noto Sans CJK JP'; text-anchor: end" x="38.83" y="286.215435" transform="rotate(-0 38.83 286.215435)">0.1</text>
     </g>
    </g>
    <g id="ytick_3">
     <g id="line2d_10">
      <path d="M 45.83 233.121641 
L 745.2 233.121641 
" clip-path="url(#p000163f5ed)" style="fill: none; stroke: #b0b0b0; stroke-opacity: 0.25; stroke-width: 0.8; stroke-linecap: square"/>
     </g>
     <g id="line2d_11">
      <g>
       <use xlink:href="#m5d321d8381" x="45.83" y="233.121641" style="stroke: #000000; stroke-width: 0.8"/>
      </g>
     </g>
     <g id="text_8">
      <text style="font-size: 10px; font-family: 'Noto Sans CJK JP'; text-anchor: end" x="38.83" y="237.101328" transform="rotate(-0 38.83 237.101328)">0.2</text>
     </g>
    </g>
    <g id="ytick_4">
     <g id="line2d_12">
      <path d="M 45.83 184.007534 
L 745.2 184.007534 
" clip-path="url(#p000163f5ed)" style="fill: none; stroke: #b0b0b0; stroke-opacity: 0.25; stroke-width: 0.8; stroke-linecap: square"/>
     </g>
     <g id="line2d_13">
      <g>
       <use xlink:href="#m5d321d8381" x="45.83" y="184.007534" style="stroke: #000000; stroke-width: 0.8"/>
      </g>
     </g>
     <g id="text_9">
      <text style="font-size: 10px; font-family: 'Noto Sans CJK JP'; text-anchor: end" x="38.83" y="187.987222" transform="rotate(-0 38.83 187.987222)">0.3</text>
     </g>
    </g>
    <g id="ytick_5">
     <g id="line2d_14">
      <path d="M 45.83 134.893428 
L 745.2 134.893428 
" clip-path="url(#p000163f5ed)" style="fill: none; stroke: #b0b0b0; stroke-opacity: 0.25; stroke-width: 0.8; stroke-linecap: square"/>
     </g>
     <g id="line2d_15">
      <g>
       <use xlink:href="#m5d321d8381" x="45.83" y="134.893428" style="stroke: #000000; stroke-width: 0.8"/>
      </g>
     </g>
     <g id="text_10">
      <text style="font-size: 10px; font-family: 'Noto Sans CJK JP'; text-anchor: end" x="38.83" y="138.873115" transform="rotate(-0 38.83 138.873115)">0.4</text>
     </g>
    </g>
    <g id="ytick_6">
     <g id="line2d_16">
      <path d="M 45.83 85.779321 
L 745.2 85.779321 
" clip-path="url(#p000163f5ed)" style="fill: none; stroke: #b0b0b0; stroke-opacity: 0.25; stroke-width: 0.8; stroke-linecap: square"/>
     </g>
     <g id="line2d_17">
      <g>
       <use xlink:href="#m5d321d8381" x="45.83" y="85.779321" style="stroke: #000000; stroke-width: 0.8"/>
      </g>
     </g>
     <g id="text_11">
      <text style="font-size: 10px; font-family: 'Noto Sans CJK JP'; text-anchor: end" x="38.83" y="89.759009" transform="rotate(-0 38.83 89.759009)">0.5</text>
     </g>
    </g>
    <g id="ytick_7">
     <g id="line2d_18">
      <path d="M 45.83 36.665214 
L 745.2 36.665214 
" clip-path="url(#p000163f5ed)" style="fill: none; stroke: #b0b0b0; stroke-opacity: 0.25; stroke-width: 0.8; stroke-linecap: square"/>
     </g>
     <g id="line2d_19">
      <g>
       <use xlink:href="#m5d321d8381" x="45.83" y="36.665214" style="stroke: #000000; stroke-width: 0.8"/>
      </g>
     </g>
     <g id="text_12">
      <text style="font-size: 10px; font-family: 'Noto Sans CJK JP'; text-anchor: end" x="38.83" y="40.644902" transform="rotate(-0 38.83 40.644902)">0.6</text>
     </g>
    </g>
    <g id="text_13">
     <text style="font-size: 10px; font-family: 'Noto Sans CJK JP'; text-anchor: middle" x="18.659688" y="178.754927" transform="rotate(-90 18.659688 178.754927)">误差</text>
    </g>
   </g>
   <g id="patch_18">
    <path d="M 45.83 331.349854 
L 45.83 26.16 
" style="fill: none; stroke: #000000; stroke-width: 0.8; stroke-linejoin: miter; stroke-linecap: square"/>
   </g>
   <g id="patch_19">
    <path d="M 745.2 331.349854 
L 745.2 26.16 
" style="fill: none; stroke: #000000; stroke-width: 0.8; stroke-linejoin: miter; stroke-linecap: square"/>
   </g>
   <g id="patch_20">
    <path d="M 45.83 331.349854 
L 745.2 331.349854 
" style="fill: none; stroke: #000000; stroke-width: 0.8; stroke-linejoin: miter; stroke-linecap: square"/>
   </g>
   <g id="patch_21">
    <path d="M 45.83 26.16 
L 745.2 26.16 
" style="fill: none; stroke: #000000; stroke-width: 0.8; stroke-linejoin: miter; stroke-linecap: square"/>
   </g>
   <g id="text_14">
    <text style="font-size: 8px; font-family: 'Noto Sans CJK JP'; text-anchor: middle" x="95.280404" y="320.656857" transform="rotate(-0 95.280404 320.656857)">0.01</text>
   </g>
   <g id="text_15">
    <text style="font-size: 8px; font-family: 'Noto Sans CJK JP'; text-anchor: middle" x="227.736843" y="90.124448" transform="rotate(-0 227.736843 90.124448)">0.48</text>
   </g>
   <g id="text_16">
    <text style="font-size: 8px; font-family: 'Noto Sans CJK JP'; text-anchor: middle" x="360.193283" y="198.149838" transform="rotate(-0 360.193283 198.149838)">0.26</text>
   </g>
   <g id="text_17">
    <text style="font-size: 8px; font-family: 'Noto Sans CJK JP'; text-anchor: middle" x="492.649722" y="173.232717" transform="rotate(-0 492.649722 173.232717)">0.31</text>
   </g>
   <g id="text_18">
    <text style="font-size: 8px; font-family: 'Noto Sans CJK JP'; text-anchor: middle" x="625.106162" y="230.966682" transform="rotate(-0 625.106162 230.966682)">0.19</text>
   </g>
   <g id="text_19">
    <text style="font-size: 8px; font-family: 'Noto Sans CJK JP'; text-anchor: middle" x="130.602121" y="316.447446" transform="rotate(-0 130.602121 316.447446)">0.01</text>
   </g>
   <g id="text_20">
    <text style="font-size: 8px; font-family: 'Noto Sans CJK JP'; text-anchor: middle" x="263.058561" y="134.40816" transform="rotate(-0 263.058561 134.40816)">0.39</text>
   </g>
   <g id="text_21">
    <text style="font-size: 8px; font-family: 'Noto Sans CJK JP'; text-anchor: middle" x="395.515" y="226.756791" transform="rotate(-0 395.515 226.756791)">0.20</text>
   </g>
   <g id="text_22">
    <text style="font-size: 8px; font-family: 'Noto Sans CJK JP'; text-anchor: middle" x="527.971439" y="92.088373" transform="rotate(-0 527.971439 92.088373)">0.47</text>
   </g>
   <g id="text_23">
    <text style="font-size: 8px; font-family: 'Noto Sans CJK JP'; text-anchor: middle" x="660.427879" y="231.196477" transform="rotate(-0 660.427879 231.196477)">0.19</text>
   </g>
   <g id="text_24">
    <text style="font-size: 8px; font-family: 'Noto Sans CJK JP'; text-anchor: middle" x="165.923838" y="298.177564" transform="rotate(-0 165.923838 298.177564)">0.05</text>
   </g>
   <g id="text_25">
    <text style="font-size: 8px; font-family: 'Noto Sans CJK JP'; text-anchor: middle" x="298.380278" y="79.471778" transform="rotate(-0 298.380278 79.471778)">0.50</text>
   </g>
   <g id="text_26">
    <text style="font-size: 8px; font-family: 'Noto Sans CJK JP'; text-anchor: middle" x="430.836717" y="211.287194" transform="rotate(-0 430.836717 211.287194)">0.23</text>
   </g>
   <g id="text_27">
    <text style="font-size: 8px; font-family: 'Noto Sans CJK JP'; text-anchor: middle" x="563.293157" y="116.984611" transform="rotate(-0 563.293157 116.984611)">0.42</text>
   </g>
   <g id="text_28">
    <text style="font-size: 8px; font-family: 'Noto Sans CJK JP'; text-anchor: middle" x="695.749596" y="216.336495" transform="rotate(-0 695.749596 216.336495)">0.22</text>
   </g>
   <g id="text_29">
    <text style="font-size: 12px; font-family: 'Noto Sans CJK JP'; text-anchor: middle" x="395.515" y="20.16" transform="rotate(-0 395.515 20.16)">扰动场景分布相似性（越低越接近参考集）</text>
   </g>
   <g id="legend_1">
    <g id="patch_22">
     <path d="M 670.229688 79.91 
L 738.2 79.91 
Q 740.2 79.91 740.2 77.91 
L 740.2 33.16 
Q 740.2 31.16 738.2 31.16 
L 670.229688 31.16 
Q 668.229688 31.16 668.229688 33.16 
L 668.229688 77.91 
Q 668.229688 79.91 670.229688 79.91 
z
" style="fill: #ffffff; opacity: 0.8; stroke: #cccccc; stroke-linejoin: miter"/>
    </g>
    <g id="patch_23">
     <path d="M 672.229688 43.119375 
L 692.229688 43.119375 
L 692.229688 36.119375 
L 672.229688 36.119375 
z
" style="fill: #1f77b4"/>
    </g>
    <g id="text_30">
     <text style="font-size: 10px; font-family: 'Noto Sans CJK JP'; text-anchor: start" x="700.229688" y="43.119375" transform="rotate(-0 700.229688 43.119375)">steps=2</text>
    </g>
    <g id="patch_24">
     <path d="M 672.229688 58.369375 
L 692.229688 58.369375 
L 692.229688 51.369375 
L 672.229688 51.369375 
z
" style="fill: #ff7f0e"/>
    </g>
    <g id="text_31">
     <text style="font-size: 10px; font-family: 'Noto Sans CJK JP'; text-anchor: start" x="700.229688" y="58.369375" transform="rotate(-0 700.229688 58.369375)">steps=3</text>
    </g>
    <g id="patch_25">
     <path d="M 672.229688 73.619375 
L 692.229688 73.619375 
L 692.229688 66.619375 
L 672.229688 66.619375 
z
" style="fill: #2ca02c"/>
    </g>
    <g id="text_32">
     <text style="font-size: 10px; font-family: 'Noto Sans CJK JP'; text-anchor: start" x="700.229688" y="73.619375" transform="rotate(-0 700.229688 73.619375)">steps=4</text>
    </g>
   </g>
  </g>
 </g>
 <defs>
  <clipPath id="p000163f5ed">
   <rect x="45.83" y="26.16" width="699.37" height="305.189854"/>
  </clipPath>
 </defs>
</svg>
