<?xml version="1.0" encoding="utf-8" standalone="no"?>
<!DOCTYPE svg PUBLIC "-//W3C//DTD SVG 1.1//EN"
  "http://www.w3.org/Graphics/SVG/1.1/DTD/svg11.dtd">
<svg xmlns:xlink="http://www.w3.org/1999/xlink" width="756pt" height="374.4pt" viewBox="0 0 756 374.4" xmlns="http://www.w3.org/2000/svg" version="1.1">
 <metadata>
  <rdf:RDF xmlns:dc="http://purl.org/dc/elements/1.1/" xmlns:cc="http://creativecommons.org/ns#" xmlns:rdf="http://www.w3.org/1999/02/22-rdf-syntax-ns#">
   <cc:Work>
    <dc:type rdf:resource="http://purl.org/dc/dcmitype/StillImage"/>
    <dc:date>2026-05-26T03:29:31.354496</dc:date>
    <dc:format>image/svg+xml</dc:format>
    <dc:creator>
     <cc:Agent>
      <dc:title>Matplotlib v3.10.3, https://matplotlib.org/</dc:title>
     </cc:Agent>
    </dc:creator>
   </cc:Work>
  </rdf:RDF>
 </metadata>
 <defs>
  <style type="text/css">*{stroke-linejoin: round; stroke-linecap: butt}</style>
 </defs>
 <g id="figure_1">
  <g id="patch_1">
   <path d="M 0 374.4 
L 756 374.4 
L 756 0 
L 0 0 
z
" style="fill: #ffffff"/>
  </g>
  <g id="axes_1">
   <g id="patch_2">
    <path d="M 51.41 335.822247 
L 745.2 335.822247 
L 745.2 26.16 
L 51.41 26.16 
z
" style="fill: #ffffff"/>
   </g>
   <g id="patch_3">
    <path d="M 82.945909 335.822247 
L 111.944446 335.822247 
L 111.944446 196.657395 
L 82.945909 196.657395 
z
" clip-path="url(#pd665be7828)" style="fill: #1f77b4"/>
   </g>
   <g id="patch_4">
    <path d="M 191.690423 335.822247 
L 220.68896 335.822247 
L 220.68896 195.041387 
L 191.690423 195.041387 
z
" clip-path="url(#pd665be7828)" style="fill: #1f77b4"/>
   </g>
   <g id="patch_5">
    <path d="M 300.434937 335.822247 
L 329.433474 335.822247 
L 329.433474 103.179859 
L 300.434937 103.179859 
z
" clip-path="url(#pd665be7828)" style="fill: #1f77b4"/>
   </g>
   <g id="patch_6">
    <path d="M 409.179451 335.822247 
L 438.177989 335.822247 
L 438.177989 288.53245 
L 409.179451 288.53245 
z
" clip-path="url(#pd665be7828)" style="fill: #1f77b4"/>
   </g>
   <g id="patch_7">
    <path d="M 517.923966 335.822247 
L 546.922503 335.822247 
L 546.922503 243.210231 
L 517.923966 243.210231 
z
" clip-path="url(#pd665be7828)" style="fill: #1f77b4"/>
   </g>
   <g id="patch_8">
    <path d="M 626.66848 335.822247 
L 655.667017 335.822247 
L 655.667017 205.324265 
L 626.66848 205.324265 
z
" clip-path="url(#pd665be7828)" style="fill: #1f77b4"/>
   </g>
   <g id="patch_9">
    <path d="M 111.944446 335.822247 
L 140.942983 335.822247 
L 140.942983 143.938644 
L 111.944446 143.938644 
z
" clip-path="url(#pd665be7828)" style="fill: #ff7f0e"/>
   </g>
   <g id="patch_10">
    <path d="M 220.68896 335.822247 
L 249.687497 335.822247 
L 249.687497 195.390534 
L 220.68896 195.390534 
z
" clip-path="url(#pd665be7828)" style="fill: #ff7f0e"/>
   </g>
   <g id="patch_11">
    <path d="M 329.433474 335.822247 
L 358.432011 335.822247 
L 358.432011 122.900112 
L 329.433474 122.900112 
z
" clip-path="url(#pd665be7828)" style="fill: #ff7f0e"/>
   </g>
   <g id="patch_12">
    <path d="M 438.177989 335.822247 
L 467.176526 335.822247 
L 467.176526 233.929534 
L 438.177989 233.929534 
z
" clip-path="url(#pd665be7828)" style="fill: #ff7f0e"/>
   </g>
   <g id="patch_13">
    <path d="M 546.922503 335.822247 
L 575.92104 335.822247 
L 575.92104 226.063293 
L 546.922503 226.063293 
z
" clip-path="url(#pd665be7828)" style="fill: #ff7f0e"/>
   </g>
   <g id="patch_14">
    <path d="M 655.667017 335.822247 
L 684.665554 335.822247 
L 684.665554 184.444423 
L 655.667017 184.444423 
z
" clip-path="url(#pd665be7828)" style="fill: #ff7f0e"/>
   </g>
   <g id="patch_15">
    <path d="M 140.942983 335.822247 
L 169.94152 335.822247 
L 169.94152 152.888211 
L 140.942983 152.888211 
z
" clip-path="url(#pd665be7828)" style="fill: #2ca02c"/>
   </g>
   <g id="patch_16">
    <path d="M 249.687497 335.822247 
L 278.686034 335.822247 
L 278.686034 172.812623 
L 249.687497 172.812623 
z
" clip-path="url(#pd665be7828)" style="fill: #2ca02c"/>
   </g>
   <g id="patch_17">
    <path d="M 358.432011 335.822247 
L 387.430549 335.822247 
L 387.430549 88.092449 
L 358.432011 88.092449 
z
" clip-path="url(#pd665be7828)" style="fill: #2ca02c"/>
   </g>
   <g id="patch_18">
    <path d="M 467.176526 335.822247 
L 496.175063 335.822247 
L 496.175063 204.895869 
L 467.176526 204.895869 
z
" clip-path="url(#pd665be7828)" style="fill: #2ca02c"/>
   </g>
   <g id="patch_19">
    <path d="M 575.92104 335.822247 
L 604.919577 335.822247 
L 604.919577 224.318229 
L 575.92104 224.318229 
z
" clip-path="url(#pd665be7828)" style="fill: #2ca02c"/>
   </g>
   <g id="patch_20">
    <path d="M 684.665554 335.822247 
L 713.664091 335.822247 
L 713.664091 168.601476 
L 684.665554 168.601476 
z
" clip-path="url(#pd665be7828)" style="fill: #2ca02c"/>
   </g>
   <g id="matplotlib.axis_1">
    <g id="xtick_1">
     <g id="line2d_1">
      <defs>
       <path id="m49796932dc" d="M 0 0 
L 0 3.5 
" style="stroke: #000000; stroke-width: 0.8"/>
      </defs>
      <g>
       <use xlink:href="#m49796932dc" x="126.443715" y="335.822247" style="stroke: #000000; stroke-width: 0.8"/>
      </g>
     </g>
     <g id="text_1">
      <text style="font-size: 10px; font-family: 'Noto Sans CJK JP'" transform="translate(85.455537 361.334306) rotate(-15)">Task输出</text>
     </g>
    </g>
    <g id="xtick_2">
     <g id="line2d_2">
      <g>
       <use xlink:href="#m49796932dc" x="235.188229" y="335.822247" style="stroke: #000000; stroke-width: 0.8"/>
      </g>
     </g>
     <g id="text_2">
      <text style="font-size: 10px; font-family: 'Noto Sans CJK JP'" transform="translate(195.958338 360.863175) rotate(-15)">扰动场景</text>
     </g>
    </g>
    <g id="xtick_3">
     <g id="line2d_3">
      <g>
       <use xlink:href="#m49796932dc" x="343.932743" y="335.822247" style="stroke: #000000; stroke-width: 0.8"/>
      </g>
     </g>
     <g id="text_3">
      <text style="font-size: 10px; font-family: 'Noto Sans CJK JP'" transform="translate(304.702853 360.863175) rotate(-15)">联合结构</text>
     </g>
    </g>
    <g id="xtick_4">
     <g id="line2d_4">
      <g>
       <use xlink:href="#m49796932dc" x="452.677257" y="335.822247" style="stroke: #000000; stroke-width: 0.8"/>
      </g>
     </g>
     <g id="text_4">
      <text style="font-size: 10px; font-family: 'Noto Sans CJK JP'" transform="translate(410.733719 361.590295) rotate(-15)">MILP规模</text>
     </g>
    </g>
    <g id="xtick_5">
     <g id="line2d_5">
      <g>
       <use xlink:href="#m49796932dc" x="561.421771" y="335.822247" style="stroke: #000000; stroke-width: 0.8"/>
      </g>
     </g>
     <g id="text_5">
      <text style="font-size: 10px; font-family: 'Noto Sans CJK JP'" transform="translate(522.191881 360.863175) rotate(-15)">求解行为</text>
     </g>
    </g>
    <g id="xtick_6">
     <g id="line2d_6">
      <g>
       <use xlink:href="#m49796932dc" x="670.166285" y="335.822247" style="stroke: #000000; stroke-width: 0.8"/>
      </g>
     </g>
     <g id="text_6">
      <text style="font-size: 10px; font-family: 'Noto Sans CJK JP'" transform="translate(630.936395 360.863175) rotate(-15)">综合误差</text>
     </g>
    </g>
   </g>
   <g id="matplotlib.axis_2">
    <g id="ytick_1">
     <g id="line2d_7">
      <path d="M 51.41 335.822247 
L 745.2 335.822247 
" clip-path="url(#pd665be7828)" style="fill: none; stroke: #b0b0b0; stroke-opacity: 0.25; stroke-width: 0.8; stroke-linecap: square"/>
     </g>
     <g id="line2d_8">
      <defs>
       <path id="mc0a83008a9" d="M 0 0 
L -3.5 0 
" style="stroke: #000000; stroke-width: 0.8"/>
      </defs>
      <g>
       <use xlink:href="#mc0a83008a9" x="51.41" y="335.822247" style="stroke: #000000; stroke-width: 0.8"/>
      </g>
     </g>
     <g id="text_7">
      <text style="font-size: 10px; font-family: 'Noto Sans CJK JP'; text-anchor: end" x="44.41" y="339.801935" transform="rotate(-0 44.41 339.801935)">0.00</text>
     </g>
    </g>
    <g id="ytick_2">
     <g id="line2d_9">
      <path d="M 51.41 298.510832 
L 745.2 298.510832 
" clip-path="url(#pd665be7828)" style="fill: none; stroke: #b0b0b0; stroke-opacity: 0.25; stroke-width: 0.8; stroke-linecap: square"/>
     </g>
     <g id="line2d_10">
      <g>
       <use xlink:href="#mc0a83008a9" x="51.41" y="298.510832" style="stroke: #000000; stroke-width: 0.8"/>
      </g>
     </g>
     <g id="text_8">
      <text style="font-size: 10px; font-family: 'Noto Sans CJK JP'; text-anchor: end" x="44.41" y="302.490519" transform="rotate(-0 44.41 302.490519)">0.05</text>
     </g>
    </g>
    <g id="ytick_3">
     <g id="line2d_11">
      <path d="M 51.41 261.199416 
L 745.2 261.199416 
" clip-path="url(#pd665be7828)" style="fill: none; stroke: #b0b0b0; stroke-opacity: 0.25; stroke-width: 0.8; stroke-linecap: square"/>
     </g>
     <g id="line2d_12">
      <g>
       <use xlink:href="#mc0a83008a9" x="51.41" y="261.199416" style="stroke: #000000; stroke-width: 0.8"/>
      </g>
     </g>
     <g id="text_9">
      <text style="font-size: 10px; font-family: 'Noto Sans CJK JP'; text-anchor: end" x="44.41" y="265.179104" transform="rotate(-0 44.41 265.179104)">0.10</text>
     </g>
    </g>
    <g id="ytick_4">
     <g id="line2d_13">
      <path d="M 51.41 223.888001 
L 745.2 223.888001 
" clip-path="url(#pd665be7828)" style="fill: none; stroke: #b0b0b0; stroke-opacity: 0.25; stroke-width: 0.8; stroke-linecap: square"/>
     </g>
     <g id="line2d_14">
      <g>
       <use xlink:href="#mc0a83008a9" x="51.41" y="223.888001" style="stroke: #000000; stroke-width: 0.8"/>
      </g>
     </g>
     <g id="text_10">
      <text style="font-size: 10px; font-family: 'Noto Sans CJK JP'; text-anchor: end" x="44.41" y="227.867688" transform="rotate(-0 44.41 227.867688)">0.15</text>
     </g>
    </g>
    <g id="ytick_5">
     <g id="line2d_15">
      <path d="M 51.41 186.576585 
L 745.2 186.576585 
" clip-path="url(#pd665be7828)" style="fill: none; stroke: #b0b0b0; stroke-opacity: 0.25; stroke-width: 0.8; stroke-linecap: square"/>
     </g>
     <g id="line2d_16">
      <g>
       <use xlink:href="#mc0a83008a9" x="51.41" y="186.576585" style="stroke: #000000; stroke-width: 0.8"/>
      </g>
     </g>
     <g id="text_11">
      <text style="font-size: 10px; font-family: 'Noto Sans CJK JP'; text-anchor: end" x="44.41" y="190.556273" transform="rotate(-0 44.41 190.556273)">0.20</text>
     </g>
    </g>
    <g id="ytick_6">
     <g id="line2d_17">
      <path d="M 51.41 149.265169 
L 745.2 149.265169 
" clip-path="url(#pd665be7828)" style="fill: none; stroke: #b0b0b0; stroke-opacity: 0.25; stroke-width: 0.8; stroke-linecap: square"/>
     </g>
     <g id="line2d_18">
      <g>
       <use xlink:href="#mc0a83008a9" x="51.41" y="149.265169" style="stroke: #000000; stroke-width: 0.8"/>
      </g>
     </g>
     <g id="text_12">
      <text style="font-size: 10px; font-family: 'Noto Sans CJK JP'; text-anchor: end" x="44.41" y="153.244857" transform="rotate(-0 44.41 153.244857)">0.25</text>
     </g>
    </g>
    <g id="ytick_7">
     <g id="line2d_19">
      <path d="M 51.41 111.953754 
L 745.2 111.953754 
" clip-path="url(#pd665be7828)" style="fill: none; stroke: #b0b0b0; stroke-opacity: 0.25; stroke-width: 0.8; stroke-linecap: square"/>
     </g>
     <g id="line2d_20">
      <g>
       <use xlink:href="#mc0a83008a9" x="51.41" y="111.953754" style="stroke: #000000; stroke-width: 0.8"/>
      </g>
     </g>
     <g id="text_13">
      <text style="font-size: 10px; font-family: 'Noto Sans CJK JP'; text-anchor: end" x="44.41" y="115.933441" transform="rotate(-0 44.41 115.933441)">0.30</text>
     </g>
    </g>
    <g id="ytick_8">
     <g id="line2d_21">
      <path d="M 51.41 74.642338 
L 745.2 74.642338 
" clip-path="url(#pd665be7828)" style="fill: none; stroke: #b0b0b0; stroke-opacity: 0.25; stroke-width: 0.8; stroke-linecap: square"/>
     </g>
     <g id="line2d_22">
      <g>
       <use xlink:href="#mc0a83008a9" x="51.41" y="74.642338" style="stroke: #000000; stroke-width: 0.8"/>
      </g>
     </g>
     <g id="text_14">
      <text style="font-size: 10px; font-family: 'Noto Sans CJK JP'; text-anchor: end" x="44.41" y="78.622026" transform="rotate(-0 44.41 78.622026)">0.35</text>
     </g>
    </g>
    <g id="ytick_9">
     <g id="line2d_23">
      <path d="M 51.41 37.330923 
L 745.2 37.330923 
" clip-path="url(#pd665be7828)" style="fill: none; stroke: #b0b0b0; stroke-opacity: 0.25; stroke-width: 0.8; stroke-linecap: square"/>
     </g>
     <g id="line2d_24">
      <g>
       <use xlink:href="#mc0a83008a9" x="51.41" y="37.330923" style="stroke: #000000; stroke-width: 0.8"/>
      </g>
     </g>
     <g id="text_15">
      <text style="font-size: 10px; font-family: 'Noto Sans CJK JP'; text-anchor: end" x="44.41" y="41.31061" transform="rotate(-0 44.41 41.31061)">0.40</text>
     </g>
    </g>
    <g id="text_16">
     <text style="font-size: 10px; font-family: 'Noto Sans CJK JP'; text-anchor: middle" x="18.689688" y="180.991124" transform="rotate(-90 18.689688 180.991124)">误差</text>
    </g>
   </g>
   <g id="patch_21">
    <path d="M 51.41 335.822247 
L 51.41 26.16 
" style="fill: none; stroke: #000000; stroke-width: 0.8; stroke-linejoin: miter; stroke-linecap: square"/>
   </g>
   <g id="patch_22">
    <path d="M 745.2 335.822247 
L 745.2 26.16 
" style="fill: none; stroke: #000000; stroke-width: 0.8; stroke-linejoin: miter; stroke-linecap: square"/>
   </g>
   <g id="patch_23">
    <path d="M 51.41 335.822247 
L 745.2 335.822247 
" style="fill: none; stroke: #000000; stroke-width: 0.8; stroke-linejoin: miter; stroke-linecap: square"/>
   </g>
   <g id="patch_24">
    <path d="M 51.41 26.16 
L 745.2 26.16 
" style="fill: none; stroke: #000000; stroke-width: 0.8; stroke-linejoin: miter; stroke-linecap: square"/>
   </g>
   <g id="text_17">
    <text style="font-size: 8px; font-family: 'Noto Sans CJK JP'; text-anchor: middle" x="97.445178" y="185.870156" transform="rotate(-0 97.445178 185.870156)">0.19</text>
   </g>
   <g id="text_18">
    <text style="font-size: 8px; font-family: 'Noto Sans CJK JP'; text-anchor: middle" x="206.189692" y="184.254148" transform="rotate(-0 206.189692 184.254148)">0.19</text>
   </g>
   <g id="text_19">
    <text style="font-size: 8px; font-family: 'Noto Sans CJK JP'; text-anchor: middle" x="314.934206" y="92.392619" transform="rotate(-0 314.934206 92.392619)">0.31</text>
   </g>
   <g id="text_20">
    <text style="font-size: 8px; font-family: 'Noto Sans CJK JP'; text-anchor: middle" x="423.67872" y="277.745211" transform="rotate(-0 423.67872 277.745211)">0.06</text>
   </g>
   <g id="text_21">
    <text style="font-size: 8px; font-family: 'Noto Sans CJK JP'; text-anchor: middle" x="532.423234" y="232.422991" transform="rotate(-0 532.423234 232.422991)">0.12</text>
   </g>
   <g id="text_22">
    <text style="font-size: 8px; font-family: 'Noto Sans CJK JP'; text-anchor: middle" x="641.167748" y="194.537025" transform="rotate(-0 641.167748 194.537025)">0.17</text>
   </g>
   <g id="text_23">
    <text style="font-size: 8px; font-family: 'Noto Sans CJK JP'; text-anchor: middle" x="126.443715" y="133.151404" transform="rotate(-0 126.443715 133.151404)">0.26</text>
   </g>
   <g id="text_24">
    <text style="font-size: 8px; font-family: 'Noto Sans CJK JP'; text-anchor: middle" x="235.188229" y="184.603294" transform="rotate(-0 235.188229 184.603294)">0.19</text>
   </g>
   <g id="text_25">
    <text style="font-size: 8px; font-family: 'Noto Sans CJK JP'; text-anchor: middle" x="343.932743" y="112.112872" transform="rotate(-0 343.932743 112.112872)">0.29</text>
   </g>
   <g id="text_26">
    <text style="font-size: 8px; font-family: 'Noto Sans CJK JP'; text-anchor: middle" x="452.677257" y="223.142295" transform="rotate(-0 452.677257 223.142295)">0.14</text>
   </g>
   <g id="text_27">
    <text style="font-size: 8px; font-family: 'Noto Sans CJK JP'; text-anchor: middle" x="561.421771" y="215.276053" transform="rotate(-0 561.421771 215.276053)">0.15</text>
   </g>
   <g id="text_28">
    <text style="font-size: 8px; font-family: 'Noto Sans CJK JP'; text-anchor: middle" x="670.166285" y="173.657184" transform="rotate(-0 670.166285 173.657184)">0.20</text>
   </g>
   <g id="text_29">
    <text style="font-size: 8px; font-family: 'Noto Sans CJK JP'; text-anchor: middle" x="155.442252" y="142.100971" transform="rotate(-0 155.442252 142.100971)">0.25</text>
   </g>
   <g id="text_30">
    <text style="font-size: 8px; font-family: 'Noto Sans CJK JP'; text-anchor: middle" x="264.186766" y="162.025383" transform="rotate(-0 264.186766 162.025383)">0.22</text>
   </g>
   <g id="text_31">
    <text style="font-size: 8px; font-family: 'Noto Sans CJK JP'; text-anchor: middle" x="372.93128" y="77.30521" transform="rotate(-0 372.93128 77.30521)">0.33</text>
   </g>
   <g id="text_32">
    <text style="font-size: 8px; font-family: 'Noto Sans CJK JP'; text-anchor: middle" x="481.675794" y="194.108629" transform="rotate(-0 481.675794 194.108629)">0.18</text>
   </g>
   <g id="text_33">
    <text style="font-size: 8px; font-family: 'Noto Sans CJK JP'; text-anchor: middle" x="590.420308" y="213.530989" transform="rotate(-0 590.420308 213.530989)">0.15</text>
   </g>
   <g id="text_34">
    <text style="font-size: 8px; font-family: 'Noto Sans CJK JP'; text-anchor: middle" x="699.164822" y="157.814236" transform="rotate(-0 699.164822 157.814236)">0.22</text>
   </g>
   <g id="text_35">
    <text style="font-size: 12px; font-family: 'Noto Sans CJK JP'; text-anchor: middle" x="398.305" y="20.16" transform="rotate(-0 398.305 20.16)">综合相似性评分拆解（越低越接近参考集）</text>
   </g>
   <g id="legend_1">
    <g id="patch_25">
     <path d="M 670.229688 79.91 
L 738.2 79.91 
Q 740.2 79.91 740.2 77.91 
L 740.2 33.16 
Q 740.2 31.16 738.2 31.16 
L 670.229688 31.16 
Q 668.229688 31.16 668.229688 33.16 
L 668.229688 77.91 
Q 668.229688 79.91 670.229688 79.91 
z
" style="fill: #ffffff; opacity: 0.8; stroke: #cccccc; stroke-linejoin: miter"/>
    </g>
    <g id="patch_26">
     <path d="M 672.229688 43.119375 
L 692.229688 43.119375 
L 692.229688 36.119375 
L 672.229688 36.119375 
z
" style="fill: #1f77b4"/>
    </g>
    <g id="text_36">
     <text style="font-size: 10px; font-family: 'Noto Sans CJK JP'; text-anchor: start" x="700.229688" y="43.119375" transform="rotate(-0 700.229688 43.119375)">steps=2</text>
    </g>
    <g id="patch_27">
     <path d="M 672.229688 58.369375 
L 692.229688 58.369375 
L 692.229688 51.369375 
L 672.229688 51.369375 
z
" style="fill: #ff7f0e"/>
    </g>
    <g id="text_37">
     <text style="font-size: 10px; font-family: 'Noto Sans CJK JP'; text-anchor: start" x="700.229688" y="58.369375" transform="rotate(-0 700.229688 58.369375)">steps=3</text>
    </g>
    <g id="patch_28">
     <path d="M 672.229688 73.619375 
L 692.229688 73.619375 
L 692.229688 66.619375 
L 672.229688 66.619375 
z
" style="fill: #2ca02c"/>
    </g>
    <g id="text_38">
     <text style="font-size: 10px; font-family: 'Noto Sans CJK JP'; text-anchor: start" x="700.229688" y="73.619375" transform="rotate(-0 700.229688 73.619375)">steps=4</text>
    </g>
   </g>
  </g>
 </g>
 <defs>
  <clipPath id="pd665be7828">
   <rect x="51.41" y="26.16" width="693.79" height="309.662247"/>
  </clipPath>
 </defs>
</svg>
