<?xml version="1.0" encoding="utf-8" standalone="no"?>
<!DOCTYPE svg PUBLIC "-//W3C//DTD SVG 1.1//EN"
  "http://www.w3.org/Graphics/SVG/1.1/DTD/svg11.dtd">
<svg xmlns:xlink="http://www.w3.org/1999/xlink" width="756pt" height="374.4pt" viewBox="0 0 756 374.4" xmlns="http://www.w3.org/2000/svg" version="1.1">
 <metadata>
  <rdf:RDF xmlns:dc="http://purl.org/dc/elements/1.1/" xmlns:cc="http://creativecommons.org/ns#" xmlns:rdf="http://www.w3.org/1999/02/22-rdf-syntax-ns#">
   <cc:Work>
    <dc:type rdf:resource="http://purl.org/dc/dcmitype/StillImage"/>
    <dc:date>2026-05-26T03:29:31.097996</dc:date>
    <dc:format>image/svg+xml</dc:format>
    <dc:creator>
     <cc:Agent>
      <dc:title>Matplotlib v3.10.3, https://matplotlib.org/</dc:title>
     </cc:Agent>
    </dc:creator>
   </cc:Work>
  </rdf:RDF>
 </metadata>
 <defs>
  <style type="text/css">*{stroke-linejoin: round; stroke-linecap: butt}</style>
 </defs>
 <g id="figure_1">
  <g id="patch_1">
   <path d="M 0 374.4 
L 756 374.4 
L 756 0 
L 0 0 
z
" style="fill: #ffffff"/>
  </g>
  <g id="axes_1">
   <g id="patch_2">
    <path d="M 45.83 328.764252 
L 745.2 328.764252 
L 745.2 26.16 
L 45.83 26.16 
z
" style="fill: #ffffff"/>
   </g>
   <g id="patch_3">
    <path d="M 77.619545 328.764252 
L 112.941263 328.764252 
L 112.941263 280.46995 
L 77.619545 280.46995 
z
" clip-path="url(#p9202628401)" style="fill: #1f77b4"/>
   </g>
   <g id="patch_4">
    <path d="M 210.075985 328.764252 
L 245.397702 328.764252 
L 245.397702 194.681875 
L 210.075985 194.681875 
z
" clip-path="url(#p9202628401)" style="fill: #1f77b4"/>
   </g>
   <g id="patch_5">
    <path d="M 342.532424 328.764252 
L 377.854141 328.764252 
L 377.854141 153.325529 
L 342.532424 153.325529 
z
" clip-path="url(#p9202628401)" style="fill: #1f77b4"/>
   </g>
   <g id="patch_6">
    <path d="M 474.988864 328.764252 
L 510.310581 328.764252 
L 510.310581 157.56856 
L 474.988864 157.56856 
z
" clip-path="url(#p9202628401)" style="fill: #1f77b4"/>
   </g>
   <g id="patch_7">
    <path d="M 607.445303 328.764252 
L 642.76702 328.764252 
L 642.76702 196.511479 
L 607.445303 196.511479 
z
" clip-path="url(#p9202628401)" style="fill: #1f77b4"/>
   </g>
   <g id="patch_8">
    <path d="M 112.941263 328.764252 
L 148.26298 328.764252 
L 148.26298 273.213535 
L 112.941263 273.213535 
z
" clip-path="url(#p9202628401)" style="fill: #ff7f0e"/>
   </g>
   <g id="patch_9">
    <path d="M 245.397702 328.764252 
L 280.719419 328.764252 
L 280.719419 196.459469 
L 245.397702 196.459469 
z
" clip-path="url(#p9202628401)" style="fill: #ff7f0e"/>
   </g>
   <g id="patch_10">
    <path d="M 377.854141 328.764252 
L 413.175859 328.764252 
L 413.175859 181.284232 
L 377.854141 181.284232 
z
" clip-path="url(#p9202628401)" style="fill: #ff7f0e"/>
   </g>
   <g id="patch_11">
    <path d="M 510.310581 328.764252 
L 545.632298 328.764252 
L 545.632298 179.931035 
L 510.310581 179.931035 
z
" clip-path="url(#p9202628401)" style="fill: #ff7f0e"/>
   </g>
   <g id="patch_12">
    <path d="M 642.76702 328.764252 
L 678.088737 328.764252 
L 678.088737 207.722068 
L 642.76702 207.722068 
z
" clip-path="url(#p9202628401)" style="fill: #ff7f0e"/>
   </g>
   <g id="patch_13">
    <path d="M 148.26298 328.764252 
L 183.584697 328.764252 
L 183.584697 255.739487 
L 148.26298 255.739487 
z
" clip-path="url(#p9202628401)" style="fill: #2ca02c"/>
   </g>
   <g id="patch_14">
    <path d="M 280.719419 328.764252 
L 316.041136 328.764252 
L 316.041136 226.731504 
L 280.719419 226.731504 
z
" clip-path="url(#p9202628401)" style="fill: #2ca02c"/>
   </g>
   <g id="patch_15">
    <path d="M 413.175859 328.764252 
L 448.497576 328.764252 
L 448.497576 182.586453 
L 413.175859 182.586453 
z
" clip-path="url(#p9202628401)" style="fill: #2ca02c"/>
   </g>
   <g id="patch_16">
    <path d="M 545.632298 328.764252 
L 580.954015 328.764252 
L 580.954015 86.68085 
L 545.632298 86.68085 
z
" clip-path="url(#p9202628401)" style="fill: #2ca02c"/>
   </g>
   <g id="patch_17">
    <path d="M 678.088737 328.764252 
L 713.410455 328.764252 
L 713.410455 187.934574 
L 678.088737 187.934574 
z
" clip-path="url(#p9202628401)" style="fill: #2ca02c"/>
   </g>
   <g id="matplotlib.axis_1">
    <g id="xtick_1">
     <g id="line2d_1">
      <defs>
       <path id="mcc2af818ff" d="M 0 0 
L 0 3.5 
" style="stroke: #000000; stroke-width: 0.8"/>
      </defs>
      <g>
       <use xlink:href="#mcc2af818ff" x="130.602121" y="328.764252" style="stroke: #000000; stroke-width: 0.8"/>
      </g>
     </g>
     <g id="text_1">
      <text style="font-size: 10px; font-family: 'Noto Sans CJK JP'" transform="translate(81.712973 356.39337) rotate(-15)">类型×时间</text>
     </g>
    </g>
    <g id="xtick_2">
     <g id="line2d_2">
      <g>
       <use xlink:href="#mcc2af818ff" x="263.058561" y="328.764252" style="stroke: #000000; stroke-width: 0.8"/>
      </g>
     </g>
     <g id="text_2">
      <text style="font-size: 10px; font-family: 'Noto Sans CJK JP'" transform="translate(194.850895 361.569751) rotate(-15)">晚点站点×时间</text>
     </g>
    </g>
    <g id="xtick_3">
     <g id="line2d_3">
      <g>
       <use xlink:href="#mcc2af818ff" x="395.515" y="328.764252" style="stroke: #000000; stroke-width: 0.8"/>
      </g>
     </g>
     <g id="text_3">
      <text style="font-size: 10px; font-family: 'Noto Sans CJK JP'" transform="translate(327.307335 361.569751) rotate(-15)">限速区间×时间</text>
     </g>
    </g>
    <g id="xtick_4">
     <g id="line2d_4">
      <g>
       <use xlink:href="#mcc2af818ff" x="527.971439" y="328.764252" style="stroke: #000000; stroke-width: 0.8"/>
      </g>
     </g>
     <g id="text_4">
      <text style="font-size: 10px; font-family: 'Noto Sans CJK JP'" transform="translate(459.763774 361.569751) rotate(-15)">中断区间×时间</text>
     </g>
    </g>
    <g id="xtick_5">
     <g id="line2d_5">
      <g>
       <use xlink:href="#mcc2af818ff" x="660.427879" y="328.764252" style="stroke: #000000; stroke-width: 0.8"/>
      </g>
     </g>
     <g id="text_5">
      <text style="font-size: 10px; font-family: 'Noto Sans CJK JP'" transform="translate(601.879472 358.98156) rotate(-15)">联合综合误差</text>
     </g>
    </g>
   </g>
   <g id="matplotlib.axis_2">
    <g id="ytick_1">
     <g id="line2d_6">
      <path d="M 45.83 328.764252 
L 745.2 328.764252 
" clip-path="url(#p9202628401)" style="fill: none; stroke: #b0b0b0; stroke-opacity: 0.25; stroke-width: 0.8; stroke-linecap: square"/>
     </g>
     <g id="line2d_7">
      <defs>
       <path id="m86bbd6e262" d="M 0 0 
L -3.5 0 
" style="stroke: #000000; stroke-width: 0.8"/>
      </defs>
      <g>
       <use xlink:href="#m86bbd6e262" x="45.83" y="328.764252" style="stroke: #000000; stroke-width: 0.8"/>
      </g>
     </g>
     <g id="text_6">
      <text style="font-size: 10px; font-family: 'Noto Sans CJK JP'; text-anchor: end" x="38.83" y="332.743939" transform="rotate(-0 38.83 332.743939)">0.0</text>
     </g>
    </g>
    <g id="ytick_2">
     <g id="line2d_8">
      <path d="M 45.83 286.342592 
L 745.2 286.342592 
" clip-path="url(#p9202628401)" style="fill: none; stroke: #b0b0b0; stroke-opacity: 0.25; stroke-width: 0.8; stroke-linecap: square"/>
     </g>
     <g id="line2d_9">
      <g>
       <use xlink:href="#m86bbd6e262" x="45.83" y="286.342592" style="stroke: #000000; stroke-width: 0.8"/>
      </g>
     </g>
     <g id="text_7">
      <text style="font-size: 10px; font-family: 'Noto Sans CJK JP'; text-anchor: end" x="38.83" y="290.322279" transform="rotate(-0 38.83 290.322279)">0.1</text>
     </g>
    </g>
    <g id="ytick_3">
     <g id="line2d_10">
      <path d="M 45.83 243.920931 
L 745.2 243.920931 
" clip-path="url(#p9202628401)" style="fill: none; stroke: #b0b0b0; stroke-opacity: 0.25; stroke-width: 0.8; stroke-linecap: square"/>
     </g>
     <g id="line2d_11">
      <g>
       <use xlink:href="#m86bbd6e262" x="45.83" y="243.920931" style="stroke: #000000; stroke-width: 0.8"/>
      </g>
     </g>
     <g id="text_8">
      <text style="font-size: 10px; font-family: 'Noto Sans CJK JP'; text-anchor: end" x="38.83" y="247.900619" transform="rotate(-0 38.83 247.900619)">0.2</text>
     </g>
    </g>
    <g id="ytick_4">
     <g id="line2d_12">
      <path d="M 45.83 201.499271 
L 745.2 201.499271 
" clip-path="url(#p9202628401)" style="fill: none; stroke: #b0b0b0; stroke-opacity: 0.25; stroke-width: 0.8; stroke-linecap: square"/>
     </g>
     <g id="line2d_13">
      <g>
       <use xlink:href="#m86bbd6e262" x="45.83" y="201.499271" style="stroke: #000000; stroke-width: 0.8"/>
      </g>
     </g>
     <g id="text_9">
      <text style="font-size: 10px; font-family: 'Noto Sans CJK JP'; text-anchor: end" x="38.83" y="205.478959" transform="rotate(-0 38.83 205.478959)">0.3</text>
     </g>
    </g>
    <g id="ytick_5">
     <g id="line2d_14">
      <path d="M 45.83 159.077611 
L 745.2 159.077611 
" clip-path="url(#p9202628401)" style="fill: none; stroke: #b0b0b0; stroke-opacity: 0.25; stroke-width: 0.8; stroke-linecap: square"/>
     </g>
     <g id="line2d_15">
      <g>
       <use xlink:href="#m86bbd6e262" x="45.83" y="159.077611" style="stroke: #000000; stroke-width: 0.8"/>
      </g>
     </g>
     <g id="text_10">
      <text style="font-size: 10px; font-family: 'Noto Sans CJK JP'; text-anchor: end" x="38.83" y="163.057299" transform="rotate(-0 38.83 163.057299)">0.4</text>
     </g>
    </g>
    <g id="ytick_6">
     <g id="line2d_16">
      <path d="M 45.83 116.655951 
L 745.2 116.655951 
" clip-path="url(#p9202628401)" style="fill: none; stroke: #b0b0b0; stroke-opacity: 0.25; stroke-width: 0.8; stroke-linecap: square"/>
     </g>
     <g id="line2d_17">
      <g>
       <use xlink:href="#m86bbd6e262" x="45.83" y="116.655951" style="stroke: #000000; stroke-width: 0.8"/>
      </g>
     </g>
     <g id="text_11">
      <text style="font-size: 10px; font-family: 'Noto Sans CJK JP'; text-anchor: end" x="38.83" y="120.635638" transform="rotate(-0 38.83 120.635638)">0.5</text>
     </g>
    </g>
    <g id="ytick_7">
     <g id="line2d_18">
      <path d="M 45.83 74.234291 
L 745.2 74.234291 
" clip-path="url(#p9202628401)" style="fill: none; stroke: #b0b0b0; stroke-opacity: 0.25; stroke-width: 0.8; stroke-linecap: square"/>
     </g>
     <g id="line2d_19">
      <g>
       <use xlink:href="#m86bbd6e262" x="45.83" y="74.234291" style="stroke: #000000; stroke-width: 0.8"/>
      </g>
     </g>
     <g id="text_12">
      <text style="font-size: 10px; font-family: 'Noto Sans CJK JP'; text-anchor: end" x="38.83" y="78.213978" transform="rotate(-0 38.83 78.213978)">0.6</text>
     </g>
    </g>
    <g id="ytick_8">
     <g id="line2d_20">
      <path d="M 45.83 31.812631 
L 745.2 31.812631 
" clip-path="url(#p9202628401)" style="fill: none; stroke: #b0b0b0; stroke-opacity: 0.25; stroke-width: 0.8; stroke-linecap: square"/>
     </g>
     <g id="line2d_21">
      <g>
       <use xlink:href="#m86bbd6e262" x="45.83" y="31.812631" style="stroke: #000000; stroke-width: 0.8"/>
      </g>
     </g>
     <g id="text_13">
      <text style="font-size: 10px; font-family: 'Noto Sans CJK JP'; text-anchor: end" x="38.83" y="35.792318" transform="rotate(-0 38.83 35.792318)">0.7</text>
     </g>
    </g>
    <g id="text_14">
     <text style="font-size: 10px; font-family: 'Noto Sans CJK JP'; text-anchor: middle" x="18.659688" y="177.462126" transform="rotate(-90 18.659688 177.462126)">JSD</text>
    </g>
   </g>
   <g id="patch_18">
    <path d="M 45.83 328.764252 
L 45.83 26.16 
" style="fill: none; stroke: #000000; stroke-width: 0.8; stroke-linejoin: miter; stroke-linecap: square"/>
   </g>
   <g id="patch_19">
    <path d="M 745.2 328.764252 
L 745.2 26.16 
" style="fill: none; stroke: #000000; stroke-width: 0.8; stroke-linejoin: miter; stroke-linecap: square"/>
   </g>
   <g id="patch_20">
    <path d="M 45.83 328.764252 
L 745.2 328.764252 
" style="fill: none; stroke: #000000; stroke-width: 0.8; stroke-linejoin: miter; stroke-linecap: square"/>
   </g>
   <g id="patch_21">
    <path d="M 45.83 26.16 
L 745.2 26.16 
" style="fill: none; stroke: #000000; stroke-width: 0.8; stroke-linejoin: miter; stroke-linecap: square"/>
   </g>
   <g id="text_15">
    <text style="font-size: 8px; font-family: 'Noto Sans CJK JP'; text-anchor: middle" x="95.280404" y="273.546851" transform="rotate(-0 95.280404 273.546851)">0.11</text>
   </g>
   <g id="text_16">
    <text style="font-size: 8px; font-family: 'Noto Sans CJK JP'; text-anchor: middle" x="227.736843" y="187.758776" transform="rotate(-0 227.736843 187.758776)">0.32</text>
   </g>
   <g id="text_17">
    <text style="font-size: 8px; font-family: 'Noto Sans CJK JP'; text-anchor: middle" x="360.193283" y="146.40243" transform="rotate(-0 360.193283 146.40243)">0.41</text>
   </g>
   <g id="text_18">
    <text style="font-size: 8px; font-family: 'Noto Sans CJK JP'; text-anchor: middle" x="492.649722" y="150.64546" transform="rotate(-0 492.649722 150.64546)">0.40</text>
   </g>
   <g id="text_19">
    <text style="font-size: 8px; font-family: 'Noto Sans CJK JP'; text-anchor: middle" x="625.106162" y="189.588379" transform="rotate(-0 625.106162 189.588379)">0.31</text>
   </g>
   <g id="text_20">
    <text style="font-size: 8px; font-family: 'Noto Sans CJK JP'; text-anchor: middle" x="130.602121" y="266.290436" transform="rotate(-0 130.602121 266.290436)">0.13</text>
   </g>
   <g id="text_21">
    <text style="font-size: 8px; font-family: 'Noto Sans CJK JP'; text-anchor: middle" x="263.058561" y="189.53637" transform="rotate(-0 263.058561 189.53637)">0.31</text>
   </g>
   <g id="text_22">
    <text style="font-size: 8px; font-family: 'Noto Sans CJK JP'; text-anchor: middle" x="395.515" y="174.361133" transform="rotate(-0 395.515 174.361133)">0.35</text>
   </g>
   <g id="text_23">
    <text style="font-size: 8px; font-family: 'Noto Sans CJK JP'; text-anchor: middle" x="527.971439" y="173.007935" transform="rotate(-0 527.971439 173.007935)">0.35</text>
   </g>
   <g id="text_24">
    <text style="font-size: 8px; font-family: 'Noto Sans CJK JP'; text-anchor: middle" x="660.427879" y="200.798968" transform="rotate(-0 660.427879 200.798968)">0.29</text>
   </g>
   <g id="text_25">
    <text style="font-size: 8px; font-family: 'Noto Sans CJK JP'; text-anchor: middle" x="165.923838" y="248.816387" transform="rotate(-0 165.923838 248.816387)">0.17</text>
   </g>
   <g id="text_26">
    <text style="font-size: 8px; font-family: 'Noto Sans CJK JP'; text-anchor: middle" x="298.380278" y="219.808405" transform="rotate(-0 298.380278 219.808405)">0.24</text>
   </g>
   <g id="text_27">
    <text style="font-size: 8px; font-family: 'Noto Sans CJK JP'; text-anchor: middle" x="430.836717" y="175.663354" transform="rotate(-0 430.836717 175.663354)">0.34</text>
   </g>
   <g id="text_28">
    <text style="font-size: 8px; font-family: 'Noto Sans CJK JP'; text-anchor: middle" x="563.293157" y="79.757751" transform="rotate(-0 563.293157 79.757751)">0.57</text>
   </g>
   <g id="text_29">
    <text style="font-size: 8px; font-family: 'Noto Sans CJK JP'; text-anchor: middle" x="695.749596" y="181.011474" transform="rotate(-0 695.749596 181.011474)">0.33</text>
   </g>
   <g id="text_30">
    <text style="font-size: 12px; font-family: 'Noto Sans CJK JP'; text-anchor: middle" x="395.515" y="20.16" transform="rotate(-0 395.515 20.16)">联合结构相似性（JSD，越低越接近参考集）</text>
   </g>
   <g id="legend_1">
    <g id="patch_22">
     <path d="M 670.229688 79.91 
L 738.2 79.91 
Q 740.2 79.91 740.2 77.91 
L 740.2 33.16 
Q 740.2 31.16 738.2 31.16 
L 670.229688 31.16 
Q 668.229688 31.16 668.229688 33.16 
L 668.229688 77.91 
Q 668.229688 79.91 670.229688 79.91 
z
" style="fill: #ffffff; opacity: 0.8; stroke: #cccccc; stroke-linejoin: miter"/>
    </g>
    <g id="patch_23">
     <path d="M 672.229688 43.119375 
L 692.229688 43.119375 
L 692.229688 36.119375 
L 672.229688 36.119375 
z
" style="fill: #1f77b4"/>
    </g>
    <g id="text_31">
     <text style="font-size: 10px; font-family: 'Noto Sans CJK JP'; text-anchor: start" x="700.229688" y="43.119375" transform="rotate(-0 700.229688 43.119375)">steps=2</text>
    </g>
    <g id="patch_24">
     <path d="M 672.229688 58.369375 
L 692.229688 58.369375 
L 692.229688 51.369375 
L 672.229688 51.369375 
z
" style="fill: #ff7f0e"/>
    </g>
    <g id="text_32">
     <text style="font-size: 10px; font-family: 'Noto Sans CJK JP'; text-anchor: start" x="700.229688" y="58.369375" transform="rotate(-0 700.229688 58.369375)">steps=3</text>
    </g>
    <g id="patch_25">
     <path d="M 672.229688 73.619375 
L 692.229688 73.619375 
L 692.229688 66.619375 
L 672.229688 66.619375 
z
" style="fill: #2ca02c"/>
    </g>
    <g id="text_33">
     <text style="font-size: 10px; font-family: 'Noto Sans CJK JP'; text-anchor: start" x="700.229688" y="73.619375" transform="rotate(-0 700.229688 73.619375)">steps=4</text>
    </g>
   </g>
  </g>
 </g>
 <defs>
  <clipPath id="p9202628401">
   <rect x="45.83" y="26.16" width="699.37" height="302.604252"/>
  </clipPath>
 </defs>
</svg>
