<?xml version="1.0" encoding="utf-8" standalone="no"?>
<!DOCTYPE svg PUBLIC "-//W3C//DTD SVG 1.1//EN"
  "http://www.w3.org/Graphics/SVG/1.1/DTD/svg11.dtd">
<svg xmlns:xlink="http://www.w3.org/1999/xlink" width="633.6pt" height="345.6pt" viewBox="0 0 633.6 345.6" xmlns="http://www.w3.org/2000/svg" version="1.1">
 <metadata>
  <rdf:RDF xmlns:dc="http://purl.org/dc/elements/1.1/" xmlns:cc="http://creativecommons.org/ns#" xmlns:rdf="http://www.w3.org/1999/02/22-rdf-syntax-ns#">
   <cc:Work>
    <dc:type rdf:resource="http://purl.org/dc/dcmitype/StillImage"/>
    <dc:date>2026-05-26T03:29:30.912739</dc:date>
    <dc:format>image/svg+xml</dc:format>
    <dc:creator>
     <cc:Agent>
      <dc:title>Matplotlib v3.10.3, https://matplotlib.org/</dc:title>
     </cc:Agent>
    </dc:creator>
   </cc:Work>
  </rdf:RDF>
 </metadata>
 <defs>
  <style type="text/css">*{stroke-linejoin: round; stroke-linecap: butt}</style>
 </defs>
 <g id="figure_1">
  <g id="patch_1">
   <path d="M 0 345.6 
L 633.6 345.6 
L 633.6 0 
L 0 0 
z
" style="fill: #ffffff"/>
  </g>
  <g id="axes_1">
   <g id="patch_2">
    <path d="M 37.46 303.64 
L 622.8 303.64 
L 622.8 26.16 
L 37.46 26.16 
z
" style="fill: #ffffff"/>
   </g>
   <g id="matplotlib.axis_1">
    <g id="xtick_1">
     <g id="line2d_1">
      <path d="M 63.400372 303.64 
L 63.400372 26.16 
" clip-path="url(#pcd75a6a099)" style="fill: none; stroke: #b0b0b0; stroke-opacity: 0.25; stroke-width: 0.8; stroke-linecap: square"/>
     </g>
     <g id="line2d_2">
      <defs>
       <path id="mc026f7885f" d="M 0 0 
L 0 3.5 
" style="stroke: #000000; stroke-width: 0.8"/>
      </defs>
      <g>
       <use xlink:href="#mc026f7885f" x="63.400372" y="303.64" style="stroke: #000000; stroke-width: 0.8"/>
      </g>
     </g>
     <g id="text_1">
      <text style="font-size: 10px; font-family: 'Noto Sans CJK JP'; text-anchor: middle" x="63.400372" y="318.599375" transform="rotate(-0 63.400372 318.599375)">0</text>
     </g>
    </g>
    <g id="xtick_2">
     <g id="line2d_3">
      <path d="M 129.99953 303.64 
L 129.99953 26.16 
" clip-path="url(#pcd75a6a099)" style="fill: none; stroke: #b0b0b0; stroke-opacity: 0.25; stroke-width: 0.8; stroke-linecap: square"/>
     </g>
     <g id="line2d_4">
      <g>
       <use xlink:href="#mc026f7885f" x="129.99953" y="303.64" style="stroke: #000000; stroke-width: 0.8"/>
      </g>
     </g>
     <g id="text_2">
      <text style="font-size: 10px; font-family: 'Noto Sans CJK JP'; text-anchor: middle" x="129.99953" y="318.599375" transform="rotate(-0 129.99953 318.599375)">100</text>
     </g>
    </g>
    <g id="xtick_3">
     <g id="line2d_5">
      <path d="M 196.598688 303.64 
L 196.598688 26.16 
" clip-path="url(#pcd75a6a099)" style="fill: none; stroke: #b0b0b0; stroke-opacity: 0.25; stroke-width: 0.8; stroke-linecap: square"/>
     </g>
     <g id="line2d_6">
      <g>
       <use xlink:href="#mc026f7885f" x="196.598688" y="303.64" style="stroke: #000000; stroke-width: 0.8"/>
      </g>
     </g>
     <g id="text_3">
      <text style="font-size: 10px; font-family: 'Noto Sans CJK JP'; text-anchor: middle" x="196.598688" y="318.599375" transform="rotate(-0 196.598688 318.599375)">200</text>
     </g>
    </g>
    <g id="xtick_4">
     <g id="line2d_7">
      <path d="M 263.197846 303.64 
L 263.197846 26.16 
" clip-path="url(#pcd75a6a099)" style="fill: none; stroke: #b0b0b0; stroke-opacity: 0.25; stroke-width: 0.8; stroke-linecap: square"/>
     </g>
     <g id="line2d_8">
      <g>
       <use xlink:href="#mc026f7885f" x="263.197846" y="303.64" style="stroke: #000000; stroke-width: 0.8"/>
      </g>
     </g>
     <g id="text_4">
      <text style="font-size: 10px; font-family: 'Noto Sans CJK JP'; text-anchor: middle" x="263.197846" y="318.599375" transform="rotate(-0 263.197846 318.599375)">300</text>
     </g>
    </g>
    <g id="xtick_5">
     <g id="line2d_9">
      <path d="M 329.797004 303.64 
L 329.797004 26.16 
" clip-path="url(#pcd75a6a099)" style="fill: none; stroke: #b0b0b0; stroke-opacity: 0.25; stroke-width: 0.8; stroke-linecap: square"/>
     </g>
     <g id="line2d_10">
      <g>
       <use xlink:href="#mc026f7885f" x="329.797004" y="303.64" style="stroke: #000000; stroke-width: 0.8"/>
      </g>
     </g>
     <g id="text_5">
      <text style="font-size: 10px; font-family: 'Noto Sans CJK JP'; text-anchor: middle" x="329.797004" y="318.599375" transform="rotate(-0 329.797004 318.599375)">400</text>
     </g>
    </g>
    <g id="xtick_6">
     <g id="line2d_11">
      <path d="M 396.396162 303.64 
L 396.396162 26.16 
" clip-path="url(#pcd75a6a099)" style="fill: none; stroke: #b0b0b0; stroke-opacity: 0.25; stroke-width: 0.8; stroke-linecap: square"/>
     </g>
     <g id="line2d_12">
      <g>
       <use xlink:href="#mc026f7885f" x="396.396162" y="303.64" style="stroke: #000000; stroke-width: 0.8"/>
      </g>
     </g>
     <g id="text_6">
      <text style="font-size: 10px; font-family: 'Noto Sans CJK JP'; text-anchor: middle" x="396.396162" y="318.599375" transform="rotate(-0 396.396162 318.599375)">500</text>
     </g>
    </g>
    <g id="xtick_7">
     <g id="line2d_13">
      <path d="M 462.99532 303.64 
L 462.99532 26.16 
" clip-path="url(#pcd75a6a099)" style="fill: none; stroke: #b0b0b0; stroke-opacity: 0.25; stroke-width: 0.8; stroke-linecap: square"/>
     </g>
     <g id="line2d_14">
      <g>
       <use xlink:href="#mc026f7885f" x="462.99532" y="303.64" style="stroke: #000000; stroke-width: 0.8"/>
      </g>
     </g>
     <g id="text_7">
      <text style="font-size: 10px; font-family: 'Noto Sans CJK JP'; text-anchor: middle" x="462.99532" y="318.599375" transform="rotate(-0 462.99532 318.599375)">600</text>
     </g>
    </g>
    <g id="xtick_8">
     <g id="line2d_15">
      <path d="M 529.594478 303.64 
L 529.594478 26.16 
" clip-path="url(#pcd75a6a099)" style="fill: none; stroke: #b0b0b0; stroke-opacity: 0.25; stroke-width: 0.8; stroke-linecap: square"/>
     </g>
     <g id="line2d_16">
      <g>
       <use xlink:href="#mc026f7885f" x="529.594478" y="303.64" style="stroke: #000000; stroke-width: 0.8"/>
      </g>
     </g>
     <g id="text_8">
      <text style="font-size: 10px; font-family: 'Noto Sans CJK JP'; text-anchor: middle" x="529.594478" y="318.599375" transform="rotate(-0 529.594478 318.599375)">700</text>
     </g>
    </g>
    <g id="xtick_9">
     <g id="line2d_17">
      <path d="M 596.193636 303.64 
L 596.193636 26.16 
" clip-path="url(#pcd75a6a099)" style="fill: none; stroke: #b0b0b0; stroke-opacity: 0.25; stroke-width: 0.8; stroke-linecap: square"/>
     </g>
     <g id="line2d_18">
      <g>
       <use xlink:href="#mc026f7885f" x="596.193636" y="303.64" style="stroke: #000000; stroke-width: 0.8"/>
      </g>
     </g>
     <g id="text_9">
      <text style="font-size: 10px; font-family: 'Noto Sans CJK JP'; text-anchor: middle" x="596.193636" y="318.599375" transform="rotate(-0 596.193636 318.599375)">800</text>
     </g>
    </g>
    <g id="text_10">
     <text style="font-size: 10px; font-family: 'Noto Sans CJK JP'; text-anchor: middle" x="330.13" y="332.849375" transform="rotate(-0 330.13 332.849375)">训练轮次</text>
    </g>
   </g>
   <g id="matplotlib.axis_2">
    <g id="ytick_1">
     <g id="line2d_19">
      <path d="M 37.46 293.9685 
L 622.8 293.9685 
" clip-path="url(#pcd75a6a099)" style="fill: none; stroke: #b0b0b0; stroke-opacity: 0.25; stroke-width: 0.8; stroke-linecap: square"/>
     </g>
     <g id="line2d_20">
      <defs>
       <path id="m78db3a4c2c" d="M 0 0 
L -3.5 0 
" style="stroke: #000000; stroke-width: 0.8"/>
      </defs>
      <g>
       <use xlink:href="#m78db3a4c2c" x="37.46" y="293.9685" style="stroke: #000000; stroke-width: 0.8"/>
      </g>
     </g>
     <g id="text_11">
      <text style="font-size: 10px; font-family: 'Noto Sans CJK JP'; text-anchor: end" x="30.46" y="297.948187" transform="rotate(-0 30.46 297.948187)">0</text>
     </g>
    </g>
    <g id="ytick_2">
     <g id="line2d_21">
      <path d="M 37.46 261.206778 
L 622.8 261.206778 
" clip-path="url(#pcd75a6a099)" style="fill: none; stroke: #b0b0b0; stroke-opacity: 0.25; stroke-width: 0.8; stroke-linecap: square"/>
     </g>
     <g id="line2d_22">
      <g>
       <use xlink:href="#m78db3a4c2c" x="37.46" y="261.206778" style="stroke: #000000; stroke-width: 0.8"/>
      </g>
     </g>
     <g id="text_12">
      <text style="font-size: 10px; font-family: 'Noto Sans CJK JP'; text-anchor: end" x="30.46" y="265.186466" transform="rotate(-0 30.46 265.186466)">1</text>
     </g>
    </g>
    <g id="ytick_3">
     <g id="line2d_23">
      <path d="M 37.46 228.445057 
L 622.8 228.445057 
" clip-path="url(#pcd75a6a099)" style="fill: none; stroke: #b0b0b0; stroke-opacity: 0.25; stroke-width: 0.8; stroke-linecap: square"/>
     </g>
     <g id="line2d_24">
      <g>
       <use xlink:href="#m78db3a4c2c" x="37.46" y="228.445057" style="stroke: #000000; stroke-width: 0.8"/>
      </g>
     </g>
     <g id="text_13">
      <text style="font-size: 10px; font-family: 'Noto Sans CJK JP'; text-anchor: end" x="30.46" y="232.424744" transform="rotate(-0 30.46 232.424744)">2</text>
     </g>
    </g>
    <g id="ytick_4">
     <g id="line2d_25">
      <path d="M 37.46 195.683335 
L 622.8 195.683335 
" clip-path="url(#pcd75a6a099)" style="fill: none; stroke: #b0b0b0; stroke-opacity: 0.25; stroke-width: 0.8; stroke-linecap: square"/>
     </g>
     <g id="line2d_26">
      <g>
       <use xlink:href="#m78db3a4c2c" x="37.46" y="195.683335" style="stroke: #000000; stroke-width: 0.8"/>
      </g>
     </g>
     <g id="text_14">
      <text style="font-size: 10px; font-family: 'Noto Sans CJK JP'; text-anchor: end" x="30.46" y="199.663023" transform="rotate(-0 30.46 199.663023)">3</text>
     </g>
    </g>
    <g id="ytick_5">
     <g id="line2d_27">
      <path d="M 37.46 162.921614 
L 622.8 162.921614 
" clip-path="url(#pcd75a6a099)" style="fill: none; stroke: #b0b0b0; stroke-opacity: 0.25; stroke-width: 0.8; stroke-linecap: square"/>
     </g>
     <g id="line2d_28">
      <g>
       <use xlink:href="#m78db3a4c2c" x="37.46" y="162.921614" style="stroke: #000000; stroke-width: 0.8"/>
      </g>
     </g>
     <g id="text_15">
      <text style="font-size: 10px; font-family: 'Noto Sans CJK JP'; text-anchor: end" x="30.46" y="166.901301" transform="rotate(-0 30.46 166.901301)">4</text>
     </g>
    </g>
    <g id="ytick_6">
     <g id="line2d_29">
      <path d="M 37.46 130.159892 
L 622.8 130.159892 
" clip-path="url(#pcd75a6a099)" style="fill: none; stroke: #b0b0b0; stroke-opacity: 0.25; stroke-width: 0.8; stroke-linecap: square"/>
     </g>
     <g id="line2d_30">
      <g>
       <use xlink:href="#m78db3a4c2c" x="37.46" y="130.159892" style="stroke: #000000; stroke-width: 0.8"/>
      </g>
     </g>
     <g id="text_16">
      <text style="font-size: 10px; font-family: 'Noto Sans CJK JP'; text-anchor: end" x="30.46" y="134.13958" transform="rotate(-0 30.46 134.13958)">5</text>
     </g>
    </g>
    <g id="ytick_7">
     <g id="line2d_31">
      <path d="M 37.46 97.398171 
L 622.8 97.398171 
" clip-path="url(#pcd75a6a099)" style="fill: none; stroke: #b0b0b0; stroke-opacity: 0.25; stroke-width: 0.8; stroke-linecap: square"/>
     </g>
     <g id="line2d_32">
      <g>
       <use xlink:href="#m78db3a4c2c" x="37.46" y="97.398171" style="stroke: #000000; stroke-width: 0.8"/>
      </g>
     </g>
     <g id="text_17">
      <text style="font-size: 10px; font-family: 'Noto Sans CJK JP'; text-anchor: end" x="30.46" y="101.377858" transform="rotate(-0 30.46 101.377858)">6</text>
     </g>
    </g>
    <g id="ytick_8">
     <g id="line2d_33">
      <path d="M 37.46 64.636449 
L 622.8 64.636449 
" clip-path="url(#pcd75a6a099)" style="fill: none; stroke: #b0b0b0; stroke-opacity: 0.25; stroke-width: 0.8; stroke-linecap: square"/>
     </g>
     <g id="line2d_34">
      <g>
       <use xlink:href="#m78db3a4c2c" x="37.46" y="64.636449" style="stroke: #000000; stroke-width: 0.8"/>
      </g>
     </g>
     <g id="text_18">
      <text style="font-size: 10px; font-family: 'Noto Sans CJK JP'; text-anchor: end" x="30.46" y="68.616137" transform="rotate(-0 30.46 68.616137)">7</text>
     </g>
    </g>
    <g id="ytick_9">
     <g id="line2d_35">
      <path d="M 37.46 31.874728 
L 622.8 31.874728 
" clip-path="url(#pcd75a6a099)" style="fill: none; stroke: #b0b0b0; stroke-opacity: 0.25; stroke-width: 0.8; stroke-linecap: square"/>
     </g>
     <g id="line2d_36">
      <g>
       <use xlink:href="#m78db3a4c2c" x="37.46" y="31.874728" style="stroke: #000000; stroke-width: 0.8"/>
      </g>
     </g>
     <g id="text_19">
      <text style="font-size: 10px; font-family: 'Noto Sans CJK JP'; text-anchor: end" x="30.46" y="35.854415" transform="rotate(-0 30.46 35.854415)">8</text>
     </g>
    </g>
    <g id="text_20">
     <text style="font-size: 10px; font-family: 'Noto Sans CJK JP'; text-anchor: middle" x="18.619375" y="164.9" transform="rotate(-90 18.619375 164.9)">Loss</text>
    </g>
   </g>
   <g id="line2d_37">
    <path d="M 64.066364 38.798125 
L 67.396322 52.499381 
L 70.726279 57.518608 
L 74.056237 62.875082 
L 77.386195 63.957573 
L 80.716153 65.22516 
L 84.046111 72.522782 
L 87.376069 90.174158 
L 90.706027 115.290649 
L 94.035985 131.910135 
L 97.365943 150.967829 
L 100.695901 159.063728 
L 104.025858 175.028914 
L 107.355816 179.548839 
L 110.685774 200.163991 
L 114.015732 219.783779 
L 117.34569 203.832903 
L 120.675648 231.483621 
L 124.005606 225.959653 
L 127.335564 238.851459 
L 130.665522 244.130564 
L 133.99548 252.320178 
L 137.325437 251.6526 
L 140.655395 248.551367 
L 143.985353 258.519189 
L 147.315311 262.412044 
L 153.975227 264.012283 
L 157.305185 263.771672 
L 160.635143 262.093883 
L 163.965101 271.435414 
L 167.295059 268.526802 
L 170.625016 270.748581 
L 173.954974 271.758352 
L 177.284932 265.899288 
L 180.61489 264.557944 
L 183.944848 274.291435 
L 187.274806 272.556996 
L 190.604764 262.407384 
L 193.934722 273.943627 
L 197.26468 277.515188 
L 200.594638 267.93949 
L 203.924596 266.626355 
L 207.254553 279.136663 
L 210.584511 278.349731 
L 213.914469 275.296503 
L 217.244427 279.844498 
L 220.574385 275.848618 
L 223.904343 282.290981 
L 227.234301 281.773837 
L 230.564259 280.7863 
L 233.894217 279.596396 
L 237.224175 263.288485 
L 240.554132 279.379493 
L 243.88409 281.307758 
L 247.214048 265.774422 
L 250.544006 282.654692 
L 253.873964 281.292469 
L 257.203922 281.88172 
L 260.53388 284.885178 
L 263.863838 278.90171 
L 267.193796 281.88482 
L 270.523754 258.177773 
L 273.853711 276.713463 
L 277.183669 284.978898 
L 280.513627 284.224066 
L 283.843585 281.251453 
L 287.173543 284.703337 
L 290.503501 283.888681 
L 297.163417 278.620325 
L 300.493375 283.542174 
L 303.823333 283.71846 
L 307.15329 273.461011 
L 310.483248 286.100118 
L 313.813206 286.622415 
L 317.143164 288.476817 
L 320.473122 288.62623 
L 327.133038 284.550198 
L 330.462996 272.463779 
L 333.792954 282.601885 
L 337.122912 286.877578 
L 340.452869 251.132724 
L 343.782827 264.13896 
L 347.112785 286.180286 
L 350.442743 286.50502 
L 353.772701 288.396136 
L 357.102659 288.505322 
L 360.432617 289.34135 
L 363.762575 287.689912 
L 367.092533 285.095458 
L 370.422491 286.241487 
L 373.752449 288.371213 
L 377.082406 288.90029 
L 380.412364 287.656745 
L 383.742322 285.919072 
L 387.07228 288.298113 
L 390.402238 277.905008 
L 393.732196 285.975019 
L 397.062154 289.327684 
L 400.392112 286.02724 
L 403.72207 285.583589 
L 407.052028 284.252042 
L 410.381985 284.718443 
L 413.711943 288.115411 
L 417.041901 289.190231 
L 420.371859 288.79566 
L 423.701817 288.837491 
L 427.031775 286.507467 
L 430.361733 286.33206 
L 433.691691 287.507769 
L 437.021649 288.875318 
L 440.351607 284.214837 
L 443.681564 229.22031 
L 447.011522 278.582881 
L 450.34148 287.010787 
L 453.671438 288.680342 
L 460.331354 289.618103 
L 463.661312 284.349486 
L 466.99127 286.024434 
L 470.321228 279.526934 
L 473.651186 288.116689 
L 476.981143 288.855719 
L 480.311101 285.967206 
L 483.641059 281.482954 
L 486.971017 283.014218 
L 490.300975 288.574794 
L 493.630933 283.153462 
L 496.960891 288.501692 
L 500.290849 288.668857 
L 503.620807 290.230212 
L 506.950765 290.265637 
L 510.280722 290.731538 
L 513.61068 288.857906 
L 516.940638 290.055814 
L 520.270596 290.477508 
L 523.600554 290.714309 
L 526.930512 290.500048 
L 530.26047 290.85256 
L 533.590428 269.487849 
L 536.920386 275.139537 
L 540.250344 281.505452 
L 543.580302 281.628123 
L 546.910259 287.406758 
L 553.570175 290.414565 
L 556.900133 290.376348 
L 560.230091 290.597341 
L 563.560049 289.720322 
L 566.890007 287.289031 
L 570.219965 276.656376 
L 573.549923 283.386368 
L 576.879881 288.719183 
L 580.209838 289.173644 
L 583.539796 290.61686 
L 586.869754 289.391126 
L 590.199712 291.027273 
L 593.52967 290.738355 
L 596.193636 287.986228 
L 596.193636 287.986228 
" clip-path="url(#pcd75a6a099)" style="fill: none; stroke: #1f77b4; stroke-width: 1.8; stroke-linecap: square"/>
   </g>
   <g id="line2d_38">
    <path d="M 64.066364 38.826048 
L 67.396322 52.859415 
L 70.726279 57.569562 
L 74.056237 63.284373 
L 77.386195 64.095474 
L 80.716153 67.057075 
L 84.046111 84.66473 
L 87.376069 115.05363 
L 90.706027 139.366987 
L 97.365943 166.178597 
L 100.695901 173.952337 
L 104.025858 184.807885 
L 107.355816 179.918734 
L 110.685774 203.91308 
L 114.015732 212.155599 
L 117.34569 210.965136 
L 120.675648 226.807196 
L 124.005606 223.699102 
L 127.335564 228.714543 
L 130.665522 242.196556 
L 133.99548 246.24722 
L 137.325437 248.184903 
L 140.655395 246.377428 
L 143.985353 247.896802 
L 147.315311 257.871088 
L 150.645269 251.361272 
L 153.975227 255.026398 
L 157.305185 259.524864 
L 160.635143 257.036865 
L 163.965101 265.497359 
L 167.295059 262.870574 
L 170.625016 265.388256 
L 173.954974 269.101273 
L 177.284932 266.479663 
L 180.61489 271.485918 
L 183.944848 260.786945 
L 187.274806 270.297954 
L 190.604764 263.338667 
L 193.934722 268.310986 
L 200.594638 265.777651 
L 203.924596 265.088465 
L 207.254553 274.208855 
L 210.584511 260.276169 
L 213.914469 266.754239 
L 217.244427 273.603934 
L 220.574385 273.015352 
L 223.904343 277.751796 
L 227.234301 275.441067 
L 230.564259 275.71951 
L 233.894217 271.288927 
L 237.224175 278.968053 
L 240.554132 277.550181 
L 243.88409 275.060105 
L 247.214048 266.226851 
L 250.544006 271.169532 
L 253.873964 276.349087 
L 257.203922 279.956561 
L 260.53388 279.589906 
L 263.863838 274.07068 
L 267.193796 278.166781 
L 270.523754 277.149879 
L 273.853711 284.21428 
L 277.183669 276.41629 
L 280.513627 272.709614 
L 283.843585 281.094035 
L 287.173543 283.425745 
L 290.503501 283.959423 
L 293.833459 275.963304 
L 297.163417 275.468897 
L 300.493375 278.436228 
L 303.823333 278.637811 
L 307.15329 275.868695 
L 310.483248 285.776363 
L 313.813206 285.219573 
L 317.143164 276.391995 
L 323.80308 285.756689 
L 327.133038 286.376792 
L 330.462996 282.86831 
L 337.122912 286.162337 
L 340.452869 272.376255 
L 343.782827 259.23231 
L 350.442743 283.254718 
L 353.772701 285.566896 
L 357.102659 285.972354 
L 360.432617 287.00502 
L 363.762575 285.603322 
L 367.092533 287.022621 
L 370.422491 285.318805 
L 373.752449 285.23656 
L 377.082406 285.637699 
L 380.412364 279.228996 
L 383.742322 285.571453 
L 387.07228 283.659099 
L 390.402238 262.006199 
L 393.732196 276.706136 
L 397.062154 284.324693 
L 400.392112 286.352705 
L 403.72207 287.614146 
L 407.052028 287.324842 
L 410.381985 274.151986 
L 413.711943 283.660471 
L 417.041901 286.798802 
L 420.371859 287.416658 
L 423.701817 284.867331 
L 427.031775 285.298569 
L 430.361733 285.249529 
L 433.691691 287.855943 
L 437.021649 288.49728 
L 440.351607 285.818732 
L 443.681564 278.597579 
L 447.011522 283.680481 
L 450.34148 285.868584 
L 453.671438 285.392578 
L 457.001396 287.969996 
L 460.331354 288.213947 
L 463.661312 278.710591 
L 466.99127 279.125337 
L 470.321228 287.181521 
L 473.651186 280.539251 
L 476.981143 281.440391 
L 480.311101 288.275463 
L 483.641059 286.742054 
L 486.971017 288.43452 
L 490.300975 287.533175 
L 493.630933 289.009798 
L 496.960891 288.108464 
L 500.290849 289.338347 
L 503.620807 283.108989 
L 506.950765 278.874838 
L 510.280722 286.667197 
L 513.61068 288.391975 
L 516.940638 288.944807 
L 520.270596 289.351942 
L 523.600554 289.208923 
L 526.930512 289.379697 
L 530.26047 288.856789 
L 533.590428 250.344527 
L 536.920386 271.071317 
L 540.250344 286.505152 
L 543.580302 287.628819 
L 546.910259 289.494865 
L 550.240217 289.350356 
L 553.570175 289.669764 
L 556.900133 289.095102 
L 560.230091 285.026254 
L 563.560049 288.189004 
L 566.890007 286.348106 
L 570.219965 289.51344 
L 573.549923 290.036352 
L 576.879881 290.136945 
L 580.209838 289.796381 
L 583.539796 290.145449 
L 586.869754 290.666673 
L 590.199712 289.914083 
L 593.52967 284.573462 
L 596.193636 280.859787 
L 596.193636 280.859787 
" clip-path="url(#pcd75a6a099)" style="fill: none; stroke: #ff7f0e; stroke-width: 1.8; stroke-linecap: square"/>
   </g>
   <g id="line2d_39">
    <path d="M 64.066364 38.772727 
L 67.396322 52.880437 
L 74.056237 63.828369 
L 77.386195 64.511388 
L 80.716153 68.256279 
L 84.046111 83.727505 
L 87.376069 109.37069 
L 90.706027 131.529941 
L 94.035985 142.257485 
L 97.365943 152.157276 
L 100.695901 156.139554 
L 104.025858 174.472722 
L 107.355816 163.812185 
L 110.685774 192.038293 
L 114.015732 202.640414 
L 117.34569 199.115351 
L 120.675648 215.686702 
L 124.005606 212.96936 
L 127.335564 223.270158 
L 130.665522 231.847382 
L 133.99548 245.032583 
L 137.325437 236.471325 
L 140.655395 242.583667 
L 143.985353 246.437248 
L 147.315311 256.926795 
L 150.645269 257.135257 
L 153.975227 250.112992 
L 157.305185 259.841203 
L 160.635143 261.542882 
L 163.965101 261.361886 
L 167.295059 264.09719 
L 170.625016 267.390441 
L 173.954974 267.304364 
L 177.284932 273.078592 
L 180.61489 268.418585 
L 183.944848 271.001625 
L 187.274806 271.803932 
L 190.604764 259.455027 
L 193.934722 272.196518 
L 197.26468 271.708436 
L 200.594638 263.341345 
L 203.924596 272.275314 
L 207.254553 277.838579 
L 210.584511 275.107141 
L 213.914469 259.856105 
L 217.244427 276.971491 
L 220.574385 279.32803 
L 223.904343 281.021754 
L 227.234301 281.616842 
L 230.564259 277.514855 
L 233.894217 263.810077 
L 237.224175 279.342887 
L 240.554132 281.287649 
L 243.88409 281.750032 
L 247.214048 276.032398 
L 250.544006 283.684396 
L 253.873964 278.315151 
L 257.203922 280.386379 
L 260.53388 275.129512 
L 263.863838 278.661854 
L 267.193796 284.451092 
L 270.523754 280.068946 
L 273.853711 277.148315 
L 277.183669 278.430869 
L 280.513627 275.553961 
L 283.843585 283.804288 
L 287.173543 284.290741 
L 290.503501 283.836544 
L 293.833459 284.752008 
L 297.163417 278.653645 
L 300.493375 277.488391 
L 303.823333 284.979145 
L 307.15329 286.626079 
L 310.483248 287.442791 
L 313.813206 286.349947 
L 317.143164 281.253977 
L 320.473122 285.454981 
L 323.80308 282.897969 
L 327.133038 275.388648 
L 330.462996 282.068526 
L 333.792954 275.570392 
L 337.122912 285.41408 
L 343.782827 280.559592 
L 347.112785 282.526368 
L 350.442743 283.930258 
L 353.772701 287.740748 
L 357.102659 282.166952 
L 360.432617 282.703575 
L 363.762575 263.584476 
L 367.092533 266.852913 
L 370.422491 280.674722 
L 373.752449 286.00023 
L 377.082406 285.855875 
L 380.412364 286.514398 
L 383.742322 287.655132 
L 387.07228 286.58358 
L 390.402238 281.847938 
L 393.732196 284.397408 
L 397.062154 287.672324 
L 400.392112 287.357787 
L 407.052028 287.104638 
L 410.381985 288.021104 
L 413.711943 288.626142 
L 417.041901 287.734302 
L 420.371859 286.230786 
L 423.701817 288.682067 
L 427.031775 286.680115 
L 430.361733 282.441486 
L 433.691691 280.793825 
L 437.021649 275.19505 
L 440.351607 286.079135 
L 443.681564 288.076436 
L 447.011522 287.950188 
L 450.34148 288.678807 
L 453.671438 287.161755 
L 457.001396 282.315768 
L 460.331354 286.566239 
L 463.661312 287.141914 
L 466.99127 288.861328 
L 470.321228 289.249876 
L 476.981143 288.932927 
L 480.311101 264.55885 
L 483.641059 272.88316 
L 486.971017 287.204564 
L 490.300975 287.933319 
L 493.630933 289.031815 
L 496.960891 289.133332 
L 500.290849 289.734339 
L 503.620807 289.973139 
L 506.950765 289.207136 
L 510.280722 289.519553 
L 513.61068 285.597825 
L 516.940638 284.188861 
L 520.270596 288.896517 
L 523.600554 289.985936 
L 526.930512 289.753202 
L 530.26047 290.276352 
L 533.590428 268.868418 
L 536.920386 261.453039 
L 540.250344 277.65323 
L 543.580302 287.534762 
L 546.910259 289.179678 
L 550.240217 289.559421 
L 553.570175 289.5795 
L 556.900133 289.485769 
L 560.230091 284.96943 
L 563.560049 285.65179 
L 566.890007 285.851468 
L 570.219965 289.73233 
L 573.549923 290.052812 
L 580.209838 289.05745 
L 583.539796 290.167393 
L 590.199712 290.469495 
L 593.52967 289.938254 
L 596.193636 289.82754 
L 596.193636 289.82754 
" clip-path="url(#pcd75a6a099)" style="fill: none; stroke: #2ca02c; stroke-width: 1.8; stroke-linecap: square"/>
   </g>
   <g id="patch_3">
    <path d="M 37.46 303.64 
L 37.46 26.16 
" style="fill: none; stroke: #000000; stroke-width: 0.8; stroke-linejoin: miter; stroke-linecap: square"/>
   </g>
   <g id="patch_4">
    <path d="M 622.8 303.64 
L 622.8 26.16 
" style="fill: none; stroke: #000000; stroke-width: 0.8; stroke-linejoin: miter; stroke-linecap: square"/>
   </g>
   <g id="patch_5">
    <path d="M 37.46 303.64 
L 622.8 303.64 
" style="fill: none; stroke: #000000; stroke-width: 0.8; stroke-linejoin: miter; stroke-linecap: square"/>
   </g>
   <g id="patch_6">
    <path d="M 37.46 26.16 
L 622.8 26.16 
" style="fill: none; stroke: #000000; stroke-width: 0.8; stroke-linejoin: miter; stroke-linecap: square"/>
   </g>
   <g id="text_21">
    <text style="font-size: 12px; font-family: 'Noto Sans CJK JP'; text-anchor: middle" x="330.13" y="20.16" transform="rotate(-0 330.13 20.16)">训练损失曲线</text>
   </g>
   <g id="legend_1">
    <g id="patch_7">
     <path d="M 547.829687 79.91 
L 615.8 79.91 
Q 617.8 79.91 617.8 77.91 
L 617.8 33.16 
Q 617.8 31.16 615.8 31.16 
L 547.829687 31.16 
Q 545.829687 31.16 545.829687 33.16 
L 545.829687 77.91 
Q 545.829687 79.91 547.829687 79.91 
z
" style="fill: #ffffff; opacity: 0.8; stroke: #cccccc; stroke-linejoin: miter"/>
    </g>
    <g id="line2d_40">
     <path d="M 549.829687 39.619375 
L 559.829687 39.619375 
L 569.829687 39.619375 
" style="fill: none; stroke: #1f77b4; stroke-width: 1.8; stroke-linecap: square"/>
    </g>
    <g id="text_22">
     <text style="font-size: 10px; font-family: 'Noto Sans CJK JP'; text-anchor: start" x="577.829687" y="43.119375" transform="rotate(-0 577.829687 43.119375)">steps=2</text>
    </g>
    <g id="line2d_41">
     <path d="M 549.829687 54.869375 
L 559.829687 54.869375 
L 569.829687 54.869375 
" style="fill: none; stroke: #ff7f0e; stroke-width: 1.8; stroke-linecap: square"/>
    </g>
    <g id="text_23">
     <text style="font-size: 10px; font-family: 'Noto Sans CJK JP'; text-anchor: start" x="577.829687" y="58.369375" transform="rotate(-0 577.829687 58.369375)">steps=3</text>
    </g>
    <g id="line2d_42">
     <path d="M 549.829687 70.119375 
L 559.829687 70.119375 
L 569.829687 70.119375 
" style="fill: none; stroke: #2ca02c; stroke-width: 1.8; stroke-linecap: square"/>
    </g>
    <g id="text_24">
     <text style="font-size: 10px; font-family: 'Noto Sans CJK JP'; text-anchor: start" x="577.829687" y="73.619375" transform="rotate(-0 577.829687 73.619375)">steps=4</text>
    </g>
   </g>
  </g>
 </g>
 <defs>
  <clipPath id="pcd75a6a099">
   <rect x="37.46" y="26.16" width="585.34" height="277.48"/>
  </clipPath>
 </defs>
</svg>
